<?xml version="1.0" encoding="UTF-8" standalone="no"?>
<!-- Created with Inkscape (http://www.inkscape.org/) -->

<svg
   width="55"
   height="52"
   viewBox="0 0 14.552084 13.758334"
   version="1.1"
   id="svg9867"
   inkscape:export-filename="../../../../j-alarcon/img/icons/office.png"
   inkscape:export-xdpi="96"
   inkscape:export-ydpi="96"
   inkscape:version="1.2 (1:1.2+202206011327+fc4e4096c5)"
   sodipodi:docname="audacity.svg"
   xmlns:inkscape="http://www.inkscape.org/namespaces/inkscape"
   xmlns:sodipodi="http://sodipodi.sourceforge.net/DTD/sodipodi-0.dtd"
   xmlns="http://www.w3.org/2000/svg"
   xmlns:svg="http://www.w3.org/2000/svg">
  <sodipodi:namedview
     id="namedview9869"
     pagecolor="#ffffff"
     bordercolor="#000000"
     borderopacity="0.25"
     inkscape:showpageshadow="2"
     inkscape:pageopacity="0.0"
     inkscape:pagecheckerboard="0"
     inkscape:deskcolor="#d1d1d1"
     inkscape:document-units="mm"
     showgrid="false"
     inkscape:zoom="11.516947"
     inkscape:cx="20.534956"
     inkscape:cy="24.051512"
     inkscape:window-width="1920"
     inkscape:window-height="949"
     inkscape:window-x="1920"
     inkscape:window-y="27"
     inkscape:window-maximized="1"
     inkscape:current-layer="layer1"
     showguides="true">
    <sodipodi:guide
       position="0.1378982,6.5217155"
       orientation="1,0"
       id="guide31099"
       inkscape:locked="false" />
    <sodipodi:guide
       position="9.3961174,13.638705"
       orientation="0,-1"
       id="guide31101"
       inkscape:locked="false" />
    <sodipodi:guide
       position="14.414185,7.5325447"
       orientation="1,0"
       id="guide31103"
       inkscape:locked="false" />
    <sodipodi:guide
       position="10.475867,0.11963543"
       orientation="0,-1"
       id="guide31105"
       inkscape:locked="false" />
  </sodipodi:namedview>
  <defs
     id="defs9864" />
  <g
     inkscape:label="Capa 1"
     inkscape:groupmode="layer"
     id="layer1">
    <g
       id="g265447"
       transform="matrix(1.3280591,0,0,1.3280591,70.866416,-162.48784)">
      <rect
         style="fill:#fbffff;fill-opacity:1;stroke:#292929;stroke-width:0.491175;stroke-opacity:1"
         id="rect120393-1-7-3-6-2-2-9"
         width="10.25856"
         height="9.6883917"
         x="-53.011467"
         y="122.68552"
         ry="1.3338249" />
      <g
         id="g265440"
         transform="translate(0.65770111,-0.4834711)">
        <path
           fill="#1493f6"
           d="m -45.881391,131.87998 c 0.886246,0.005 1.69177,-0.96673 1.69177,-2.17513 0,-0.96673 -0.483364,-1.93345 -1.208408,-2.17513 v -0.72505 c 0,-1.36187 -1.411903,-2.6585 -3.141859,-2.6585 -1.729957,0 -3.174487,1.30194 -3.174487,2.66382 v 0.71973 c -0.692417,0.24168 -1.17578,0.96672 -1.17578,2.17513 0,1.2084 0.725044,2.17513 1.69177,2.17513 v -5.07531 c 0,-1.15378 1.13107,-2.17513 2.658497,-2.17513 1.527427,0 2.658497,1.02135 2.658497,2.17513"
           id="path262981"
           style="stroke-width:0.241681" />
        <polygon
           fill="#ffc300"
           points="17.857,26 21,34 24,26 27,34 30,26 33,31 33,29 30,23 27,30 24,20 21,30 17.857,23 15,29 15,31 "
           id="polygon262983"
           transform="matrix(0.24168149,0,0,0.24168149,-54.340244,122.69608)"
           style="fill:#ff9c2d;fill-opacity:1" />
        <path
           fill="#404cb8"
           d="m -45.881391,127.52972 c -0.137034,0.002 -0.383791,0.11842 -0.483364,0.24168 v 3.8669 c 0.105373,0.0928 0.350439,0.218 0.483364,0.24168 z m -5.316994,0 v 4.35026 c 0.149601,0.006 0.397808,-0.11359 0.483363,-0.24168 v -3.8669 c -0.10634,-0.0955 -0.350679,-0.22259 -0.483363,-0.24168 z"
           id="path262985"
           style="stroke-width:0.241681" />
      </g>
    </g>
  </g>
</svg>
