<?xml version="1.0" encoding="UTF-8" standalone="no"?>
<!-- Created with Inkscape (http://www.inkscape.org/) -->

<svg
   width="55"
   height="52"
   viewBox="0 0 14.552084 13.758334"
   version="1.1"
   id="svg9867"
   inkscape:export-filename="../../../../j-alarcon/img/icons/office.png"
   inkscape:export-xdpi="96"
   inkscape:export-ydpi="96"
   inkscape:version="1.2.2 (1:1.2.2+202212051550+b0a8486541)"
   sodipodi:docname="audacity.svg"
   xmlns:inkscape="http://www.inkscape.org/namespaces/inkscape"
   xmlns:sodipodi="http://sodipodi.sourceforge.net/DTD/sodipodi-0.dtd"
   xmlns="http://www.w3.org/2000/svg"
   xmlns:svg="http://www.w3.org/2000/svg">
  <sodipodi:namedview
     id="namedview9869"
     pagecolor="#ffffff"
     bordercolor="#000000"
     borderopacity="0.25"
     inkscape:showpageshadow="2"
     inkscape:pageopacity="0.0"
     inkscape:pagecheckerboard="0"
     inkscape:deskcolor="#d1d1d1"
     inkscape:document-units="mm"
     showgrid="false"
     inkscape:zoom="8.0000004"
     inkscape:cx="28.312499"
     inkscape:cy="34.624998"
     inkscape:window-width="1920"
     inkscape:window-height="949"
     inkscape:window-x="1920"
     inkscape:window-y="27"
     inkscape:window-maximized="1"
     inkscape:current-layer="layer1"
     showguides="true">
    <sodipodi:guide
       position="0.1378982,6.5217155"
       orientation="1,0"
       id="guide31099"
       inkscape:locked="false" />
    <sodipodi:guide
       position="9.3961174,13.638705"
       orientation="0,-1"
       id="guide31101"
       inkscape:locked="false" />
    <sodipodi:guide
       position="14.414185,7.5325447"
       orientation="1,0"
       id="guide31103"
       inkscape:locked="false" />
    <sodipodi:guide
       position="10.475867,0.11963543"
       orientation="0,-1"
       id="guide31105"
       inkscape:locked="false" />
  </sodipodi:namedview>
  <defs
     id="defs9864" />
  <g
     inkscape:label="Capa 1"
     inkscape:groupmode="layer"
     id="layer1">
    <g
       id="g1675">
      <rect
         style="fill:#fbffff;fill-opacity:1;stroke:#292929;stroke-width:0.652309;stroke-opacity:1"
         id="rect120393-1-7-3-6-2-2-9"
         width="13.623974"
         height="12.866756"
         x="0.46405488"
         y="0.44577643"
         ry="1.7713983" />
      <g
         id="g1638"
         transform="translate(-4.4255828e-8,-6.5087053e-5)">
        <g
           id="g1357">
          <path
             fill="#1493f6"
             d="m 10.58283,11.689016 c 1.102362,0.0062 2.104318,-1.202473 2.104318,-2.7055484 0,-1.202473 -0.601235,-2.4049336 -1.503085,-2.7055487 V 5.376061 c 0,-1.6939703 -1.7562049,-3.3067915 -3.9080212,-3.3067915 -2.1518175,0 -3.948605,1.6194261 -3.948605,3.3134088 V 6.2779189 C 2.4661697,6.578534 1.8649357,7.4803794 1.8649357,8.9834676 c 0,1.5030754 0.9018504,2.7055484 2.1043184,2.7055484 V 5.376061 c 0,-1.4351363 1.4068883,-2.7055487 3.3067877,-2.7055487 1.8998994,0 3.3067882,1.2704124 3.3067882,2.7055487"
             id="path262981"
             style="stroke-width:0.300616" />
          <polygon
             fill="#ffc300"
             points="17.857,26 21,34 24,26 27,34 30,26 33,31 33,29 30,23 27,30 24,20 21,30 17.857,23 15,29 15,31 "
             id="polygon262983"
             transform="matrix(0.300617,0,0,0.300617,0.06123403,0.26544755)"
             style="fill:#ff9c2d;fill-opacity:1" />
        </g>
        <path
           fill="#404cb8"
           d="m 10.58283,6.2778002 c -0.170451,0.00249 -0.477381,0.1472974 -0.6012353,0.3006151 v 4.8098667 c 0.1310693,0.11543 0.4358953,0.271161 0.6012353,0.300616 z m -6.6135755,-1.27e-5 v 5.4111105 c 0.1860821,0.0075 0.4948183,-0.14129 0.6012364,-0.300616 V 6.5784153 C 4.4382169,6.459627 4.1342943,6.3015329 3.9692545,6.2777875 Z"
           id="path262985"
           style="stroke-width:0.300616"
           sodipodi:nodetypes="cccccccccc" />
      </g>
    </g>
  </g>
</svg>
