<svg width="55" height="52" version="1.1" viewBox="0 0 14.552 13.758" xmlns="http://www.w3.org/2000/svg">
<rect x=".46405" y=".44578" width="13.624" height="12.867" ry="1.7714" fill="#fbffff" stroke="#292929" stroke-width=".65231"/>
<g transform="translate(-4.4256e-8 -6.5087e-5)">
<path d="m10.583 11.689c1.1024 0.0062 2.1043-1.2025 2.1043-2.7055 0-1.2025-0.60124-2.4049-1.5031-2.7055v-0.90186c0-1.694-1.7562-3.3068-3.908-3.3068-2.1518 0-3.9486 1.6194-3.9486 3.3134v0.89524c-0.86127 0.30062-1.4625 1.2025-1.4625 2.7055 0 1.5031 0.90185 2.7055 2.1043 2.7055v-6.313c0-1.4351 1.4069-2.7055 3.3068-2.7055s3.3068 1.2704 3.3068 2.7055" fill="#1493f6" stroke-width=".30062"/>
<polygon transform="matrix(.30062 0 0 .30062 .061234 .26545)" points="17.857 26 21 34 24 26 27 34 30 26 33 31 33 29 30 23 27 30 24 20 21 30 17.857 23 15 29 15 31" fill="#ff9c2d"/>
<path d="m10.583 6.2778c-0.17045 0.00249-0.47738 0.1473-0.60124 0.30062v4.8099c0.13107 0.11543 0.4359 0.27116 0.60124 0.30062zm-6.6136-1.27e-5v5.4111c0.18608 0.0075 0.49482-0.14129 0.60124-0.30062v-4.8099c-0.13227-0.11879-0.4362-0.27688-0.60124-0.30063z" fill="#404cb8" stroke-width=".30062"/>
</g>
</svg>