<svg width="55" height="52" version="1.1" viewBox="0 0 14.552 13.758" xmlns="http://www.w3.org/2000/svg">
<rect x=".46286" y=".45596" width="13.628" height="12.846" ry="1.7686" fill="#fff" stroke="#292929" stroke-width=".65188"/>
<g transform="matrix(1.4254 0 0 1.4228 -19.583 -180.63)">
<polygon transform="matrix(.017037 0 0 .017037 14.482 126.57)" points="107.64 470.88 74.633 100.62 437.37 100.62 404.32 470.82 255.78 512" fill="#264de4"/>
<polygon transform="matrix(.017037 0 0 .017037 14.482 126.57)" points="256 130.89 256 480.52 376.03 447.25 404.27 130.89" fill="#2965f1"/>
<polygon transform="matrix(.017037 0 0 .017037 14.482 126.57)" points="256 313.63 256 268.22 150.31 268.22 154.38 313.63" fill="#ebebeb"/>
<polygon transform="matrix(.017037 0 0 .017037 14.482 126.57)" points="146.26 221.72 256 221.72 256 176.3 255.84 176.3 142.13 176.3" fill="#ebebeb"/>
<polygon transform="matrix(.017037 0 0 .017037 14.482 126.57)" points="256 386.15 255.8 386.21 205.23 372.55 201.99 336.33 177.42 336.33 156.41 336.33 162.77 407.63 255.79 433.46 256 433.4" fill="#ebebeb"/>
<polygon transform="matrix(.017037 0 0 .017037 14.482 126.57)" points="255.84 268.22 255.84 313.63 311.76 313.63 306.49 372.52 255.84 386.19 255.84 433.44 348.94 407.63 349.62 399.96 360.29 280.41 361.4 268.22 369.6 176.3 255.84 176.3 255.84 221.72 319.83 221.72 315.7 268.22" fill="#fff"/>
</g>
</svg>