<?xml version="1.0" encoding="UTF-8" standalone="no"?>
<!-- Created with Inkscape (http://www.inkscape.org/) -->

<svg
   width="55"
   height="52"
   viewBox="0 0 14.552084 13.758334"
   version="1.1"
   id="svg9867"
   inkscape:export-filename="../../../../j-alarcon/img/icons/html.png"
   inkscape:export-xdpi="96"
   inkscape:export-ydpi="96"
   inkscape:version="1.2.2 (1:1.2.2+202212051550+b0a8486541)"
   sodipodi:docname="css.svg"
   xmlns:inkscape="http://www.inkscape.org/namespaces/inkscape"
   xmlns:sodipodi="http://sodipodi.sourceforge.net/DTD/sodipodi-0.dtd"
   xmlns="http://www.w3.org/2000/svg"
   xmlns:svg="http://www.w3.org/2000/svg">
  <sodipodi:namedview
     id="namedview9869"
     pagecolor="#ffffff"
     bordercolor="#000000"
     borderopacity="0.25"
     inkscape:showpageshadow="2"
     inkscape:pageopacity="0.0"
     inkscape:pagecheckerboard="0"
     inkscape:deskcolor="#d1d1d1"
     inkscape:document-units="mm"
     showgrid="false"
     inkscape:zoom="8.1437113"
     inkscape:cx="47.582728"
     inkscape:cy="32.786035"
     inkscape:window-width="1920"
     inkscape:window-height="949"
     inkscape:window-x="1920"
     inkscape:window-y="27"
     inkscape:window-maximized="1"
     inkscape:current-layer="layer1"
     showguides="true">
    <sodipodi:guide
       position="0.1378982,6.5217155"
       orientation="1,0"
       id="guide31099"
       inkscape:locked="false" />
    <sodipodi:guide
       position="9.3961174,13.638705"
       orientation="0,-1"
       id="guide31101"
       inkscape:locked="false" />
    <sodipodi:guide
       position="14.414185,7.5325447"
       orientation="1,0"
       id="guide31103"
       inkscape:locked="false" />
    <sodipodi:guide
       position="10.475867,0.11963543"
       orientation="0,-1"
       id="guide31105"
       inkscape:locked="false" />
  </sodipodi:namedview>
  <defs
     id="defs9864" />
  <g
     inkscape:label="Capa 1"
     inkscape:groupmode="layer"
     id="layer1">
    <g
       id="g2937">
      <rect
         style="fill:#ffffff;fill-opacity:1;stroke:#292929;stroke-width:0.651881;stroke-opacity:1"
         id="rect120393-1-7-3-6-2-2-6-0-1-3-3-2"
         width="13.627647"
         height="12.846416"
         x="0.46286467"
         y="0.45595756"
         ry="1.7685977" />
      <g
         id="g209301"
         transform="matrix(1.4254206,0,0,1.4227837,-19.583226,-180.62763)">
        <polygon
           id="polygon2989"
           points="107.644,470.877 74.633,100.62 437.367,100.62 404.321,470.819 255.778,512 "
           style="fill:#264de4"
           transform="matrix(0.01703678,0,0,0.01703678,14.482085,126.57015)" />
        <polygon
           id="polygon2991"
           points="256,130.894 256,480.523 376.03,447.246 404.27,130.894 "
           style="fill:#2965f1"
           transform="matrix(0.01703678,0,0,0.01703678,14.482085,126.57015)" />
        <polygon
           id="polygon2993"
           points="256,313.627 256,268.217 150.31,268.217 154.38,313.627 "
           style="fill:#ebebeb"
           transform="matrix(0.01703678,0,0,0.01703678,14.482085,126.57015)" />
        <polygon
           id="polygon2995"
           points="146.26,221.716 256,221.716 256,176.305 255.843,176.305 142.132,176.305 "
           style="fill:#ebebeb"
           transform="matrix(0.01703678,0,0,0.01703678,14.482085,126.57015)" />
        <polygon
           id="polygon2997"
           points="256,386.153 255.801,386.206 205.227,372.55 201.994,336.333 177.419,336.333 156.409,336.333 162.771,407.634 255.791,433.457 256,433.399 "
           style="fill:#ebebeb"
           transform="matrix(0.01703678,0,0,0.01703678,14.482085,126.57015)" />
        <polygon
           id="polygon3005"
           points="255.843,268.217 255.843,313.627 311.761,313.627 306.49,372.521 255.843,386.191 255.843,433.435 348.937,407.634 349.62,399.962 360.291,280.411 361.399,268.217 369.597,176.305 255.843,176.305 255.843,221.716 319.831,221.716 315.699,268.217 "
           style="fill:#ffffff"
           transform="matrix(0.01703678,0,0,0.01703678,14.482085,126.57015)" />
      </g>
    </g>
  </g>
</svg>
