<svg width="55" height="52" version="1.1" viewBox="0 0 14.552 13.758" xmlns="http://www.w3.org/2000/svg">
<g>
<rect x=".46348" y=".44579" width="13.6" height="12.867" ry="1.7714" fill="#066da5" stroke="#292929" stroke-width=".65174"/>
<g transform="matrix(1.3965 0 0 1.399 -82.715 -144.92)" fill="#fff">
<path d="m64.943 107.93h0.80503m-1.7634 0h0.80503m-1.7442 0h0.80503m-1.7442 0h0.78586m-1.7442 0h0.80503m0.15334-0.8817h0.78586m0.15334 0h0.80503m0.13417 0h0.80503m-0.80503-0.8817h0.80503" stroke="#fff" stroke-width=".72836"/>
<path d="m68.316 107.97s-0.34501-0.32585-1.0542-0.21084c-0.07667-0.55586-0.67086-0.88171-0.67086-0.88171s-0.55586 0.67086-0.15334 1.4184c-0.115 0.0575-0.30668 0.13418-0.59419 0.13418h-5.271c-0.09584 0.36418-0.09584 2.7793 2.5493 2.7793 1.8976 0 3.316-0.8817 3.9868-2.4918 0.99671 0.0767 1.2075-0.74753 1.2075-0.74753"/>
</g>
</g>
</svg>