<?xml version="1.0" encoding="UTF-8" standalone="no"?>
<!-- Created with Inkscape (http://www.inkscape.org/) -->

<svg
   width="55"
   height="52"
   viewBox="0 0 14.552084 13.758334"
   version="1.1"
   id="svg9867"
   inkscape:export-filename="../../../../j-alarcon/img/icons/express.png"
   inkscape:export-xdpi="96"
   inkscape:export-ydpi="96"
   inkscape:version="1.2.2 (1:1.2.2+202212051550+b0a8486541)"
   sodipodi:docname="express.svg"
   xmlns:inkscape="http://www.inkscape.org/namespaces/inkscape"
   xmlns:sodipodi="http://sodipodi.sourceforge.net/DTD/sodipodi-0.dtd"
   xmlns="http://www.w3.org/2000/svg"
   xmlns:svg="http://www.w3.org/2000/svg">
  <sodipodi:namedview
     id="namedview9869"
     pagecolor="#ffffff"
     bordercolor="#000000"
     borderopacity="0.25"
     inkscape:showpageshadow="2"
     inkscape:pageopacity="0.0"
     inkscape:pagecheckerboard="0"
     inkscape:deskcolor="#d1d1d1"
     inkscape:document-units="mm"
     showgrid="false"
     inkscape:zoom="8"
     inkscape:cx="59.5625"
     inkscape:cy="31.375"
     inkscape:window-width="1920"
     inkscape:window-height="949"
     inkscape:window-x="1920"
     inkscape:window-y="27"
     inkscape:window-maximized="1"
     inkscape:current-layer="layer1"
     showguides="true">
    <sodipodi:guide
       position="0.1378982,6.5217155"
       orientation="1,0"
       id="guide31099"
       inkscape:locked="false" />
    <sodipodi:guide
       position="9.3961174,13.638705"
       orientation="0,-1"
       id="guide31101"
       inkscape:locked="false" />
    <sodipodi:guide
       position="14.414185,7.5325447"
       orientation="1,0"
       id="guide31103"
       inkscape:locked="false" />
    <sodipodi:guide
       position="10.475867,0.11963543"
       orientation="0,-1"
       id="guide31105"
       inkscape:locked="false" />
  </sodipodi:namedview>
  <defs
     id="defs9864" />
  <g
     inkscape:label="Capa 1"
     inkscape:groupmode="layer"
     id="layer1">
    <g
       id="g436">
      <rect
         style="fill:#9e8bd9;fill-opacity:1;stroke:#292929;stroke-width:0.652309;stroke-opacity:1"
         id="rect120393-1-7-3-6-6"
         width="13.623977"
         height="12.866758"
         x="0.4640533"
         y="0.4457902"
         ry="1.7713984" />
      <g
         id="use248662"
         transform="matrix(0.15475074,0,0,0.15475074,2.2734835,4.002672)"
         style="fill:#ffffff;fill-opacity:1;stroke:#ffffff;stroke-width:1.86228;stroke-dasharray:none;stroke-opacity:1">
        <path
           d="m 64,36.167 c -2.328,0.592 -3.768,0.026 -5.06,-1.914 l -9.188,-12.712 -1.328,-1.76 -10.73,14.514 c -1.226,1.746 -2.512,2.506 -4.8,1.888 L 46.634,17.739 33.842,1.079 c 2.2,-0.428 3.72,-0.21 5.07,1.76 l 9.53,12.87 9.6,-12.8 c 1.23,-1.746 2.552,-2.41 4.76,-1.766 l -4.96,6.576 -6.72,8.75 c -0.8,1 -0.69,1.684 0.046,2.65 z M 0.016,17.431 1.14,11.903 C 4.2,0.963 16.74,-3.583 25.388,3.177 c 5.054,3.976 6.31,9.6 6.06,15.9 H 2.96 c -0.428,11.34 7.734,18.184 18.14,14.692 3.65,-1.226 5.8,-4.084 6.876,-7.66 0.546,-1.792 1.45,-2.072 3.134,-1.56 -0.86,4.472 -2.8,8.208 -6.9,10.546 C 18.084,38.595 9.34,37.463 4.74,32.599 2,29.777 0.868,26.201 0.36,22.377 0.28,21.745 0.12,21.143 0,20.537 q 0.016,-1.552 0.016,-3.104 z m 2.996,-0.76 H 28.756 C 28.588,8.471 23.482,2.647 16.504,2.597 8.844,2.537 3.344,8.223 3.012,16.671 Z"
           stroke="none"
           fill="#000000"
           fill-rule="nonzero"
           id="path250270"
           style="fill:#ffffff;fill-opacity:1;stroke:#ffffff;stroke-width:1.86228;stroke-dasharray:none;stroke-opacity:1" />
      </g>
    </g>
  </g>
</svg>
