<!-- https://yarduon.com -->
<svg width="55" height="52" version="1.1" viewBox="0 0 14.552 13.758" xmlns="http://www.w3.org/2000/svg">
<g>
<rect x=".46405" y=".44579" width="13.624" height="12.867" ry="1.7714" fill="#9e8bd9" stroke="#292929" stroke-width=".65231"/>
<g transform="matrix(.15475 0 0 .15475 2.2735 4.0027)" fill="#fff" stroke="#fff" stroke-width="1.8623">
<path d="m64 36.167c-2.328 0.592-3.768 0.026-5.06-1.914l-9.188-12.712-1.328-1.76-10.73 14.514c-1.226 1.746-2.512 2.506-4.8 1.888l13.74-18.444-12.792-16.66c2.2-0.428 3.72-0.21 5.07 1.76l9.53 12.87 9.6-12.8c1.23-1.746 2.552-2.41 4.76-1.766l-4.96 6.576-6.72 8.75c-0.8 1-0.69 1.684 0.046 2.65zm-63.984-18.736 1.124-5.528c3.06-10.94 15.6-15.486 24.248-8.726 5.054 3.976 6.31 9.6 6.06 15.9h-28.488c-0.428 11.34 7.734 18.184 18.14 14.692 3.65-1.226 5.8-4.084 6.876-7.66 0.546-1.792 1.45-2.072 3.134-1.56-0.86 4.472-2.8 8.208-6.9 10.546-6.126 3.5-14.87 2.368-19.47-2.496-2.74-2.822-3.872-6.398-4.38-10.222-0.08-0.632-0.24-1.234-0.36-1.84q0.016-1.552 0.016-3.104zm2.996-0.76h25.744c-0.168-8.2-5.274-14.024-12.252-14.074-7.66-0.06-13.16 5.626-13.492 14.074z" fill="#fff" stroke="#fff" stroke-width="1.8623"/>
</g>
</g>
</svg>