<!-- https://yarduon.com -->
<svg width="55" height="52" version="1.1" viewBox="0 0 14.552 13.758" xmlns="http://www.w3.org/2000/svg">
<rect x=".46405" y=".44578" width="13.624" height="12.867" ry="1.7714" fill="#d40000" stroke="#292929" stroke-width=".65231"/>
<path d="m11.064 5.7274h-5.2817l0.27564-1.2896h3.2191l0.29532-1.388h-4.6269l-1.457 6.8712h1.3979l0.63976-3.0025h3.353l-2.9135 2.8844 0.5119 0.90562c0.23621-0.15747 0.62013-0.17722 0.88596-0.17722 0.4726 0 0.93526 0.15759 1.4175 0.15759 0.44219 0 0.89486-0.02962 1.6333-0.38396l0.25801-1.2108c-0.50215 0.20666-1.2451 0.40358-1.8913 0.40358-0.26564 0-0.51178-0.058966-0.76774-0.098409l2.8243-2.7465z" fill="#fff" stroke-width=".027854"/>
</svg>