<svg width="55" height="52" version="1.1" viewBox="0 0 14.552 13.758" xmlns="http://www.w3.org/2000/svg">
<g>
<rect x=".46405" y=".44579" width="13.624" height="12.867" ry="1.7714" fill="#fff" stroke="#292929" stroke-width=".65231"/>
<g transform="matrix(1.3437 0 0 1.3437 -81.49 -148.81)" fill="#292929">
<path d="m68.783 112.86-3.2e-5 3e-5 -0.17441 0.11628-0.44185 0.60461-0.93017 0.67439-0.82554 0.18604 0.16278 0.26743 0.13953 0.60461-0.26743 0.48836s-0.32556 0.2558-0.38369 0.29068c-0.05814 0.0349-0.62788-0.0349-0.69763-0.0698-0.06974-0.0349-0.32556-0.37207-0.32556-0.37207l-0.1279-0.58137 0.22092-0.48836-0.16278-0.093-0.22092-0.0349-0.05814 0.1279 0.19766 0.2558-0.02325 0.19766v0.47671l-0.32556 0.32556-0.4767 0.0349-0.37207-0.15115-0.02325 0.0581 0.05814 0.48836-0.18604 0.45346-0.27906 0.18604 0.39534 0.37207 0.86043 0.33719 0.82554 0.23255 1.0116 0.0698 1.1162-0.2558 0.05232-0.0465-0.07644-0.11135-0.84794-0.5107 0.33809-0.31871s0.42102 0.1229 1.0487 0.37645c0.60766 0.24548 0.8922-2.9588 0.8922-2.9588zm-5.19 0.75178h-2.2e-5l2.2e-5 2e-5zm0 2e-5 -0.0082 1.003 0.36998-0.23843 0.39464-0.0411-0.27954-0.32887zm3.0313 2.6189c0.2705 0.0822 0.63444 0.23236 0.68674 0.50674-0.07817-0.0498-0.23445-0.11577-0.42796-0.0892-0.2534 0.0348-0.29698 0.28523-0.30422 0.3541-0.33875 0.15458-1.2113 0.0363-1.7541-0.14293 1.2024 0.0515 1.4715 9e-3 2.0533-0.35759l-0.25378-0.2711z"/>
<path d="m65.782 114.2a0.99207 0.99207 0 0 0-0.99207 0.99207 0.99207 0.99207 0 0 0 0.99207 0.99207 0.99207 0.99207 0 0 0 0.99207-0.99207 0.99207 0.99207 0 0 0-0.99207-0.99207zm0 0.18458a0.8075 0.8075 0 0 1 0.8075 0.8075 0.8075 0.8075 0 0 1-0.8075 0.8075 0.8075 0.8075 0 0 1-0.8075-0.8075 0.8075 0.8075 0 0 1 0.8075-0.8075z" style="paint-order:markers fill stroke"/>
<path d="m64.179 114.26a0.86517 0.86517 0 0 0-0.86517 0.86517 0.86517 0.86517 0 0 0 0.86517 0.86517 0.86517 0.86517 0 0 0 0.70858-0.37053 0.99207 0.99207 0 0 1-0.07882-0.23753 0.6806 0.6806 0 0 1-0.62977 0.4235 0.6806 0.6806 0 0 1-0.6806-0.6806 0.6806 0.6806 0 0 1 0.6806-0.68061 0.6806 0.6806 0 0 1 0.64934 0.47904 0.99207 0.99207 0 0 1 0.09938-0.23046 0.86517 0.86517 0 0 0-0.74871-0.43316z" style="paint-order:markers fill stroke"/>
<path d="m64.358 114.78a0.46432 0.46432 0 0 0-0.19318 0.0427 0.25955 0.25955 0 0 1 0.06341-8e-3 0.25955 0.25955 0 0 1 0.25955 0.25955 0.25955 0.25955 0 0 1-0.25955 0.25955 0.25955 0.25955 0 0 1-0.25957-0.25955 0.25955 0.25955 0 0 1 0.03525-0.13009 0.46432 0.46432 0 0 0-0.11022 0.30024 0.46432 0.46432 0 0 0 0.46432 0.46432 0.46432 0.46432 0 0 0 0.46432-0.46432 0.46432 0.46432 0 0 0-0.46432-0.46432z" style="paint-order:markers fill stroke"/>
<path d="m65.984 114.81a0.53065 0.53065 0 0 0-0.23934 0.0571 0.30281 0.30281 0 0 1 0.08072-0.011 0.30281 0.30281 0 0 1 0.30282 0.30281 0.30281 0.30281 0 0 1-0.30282 0.30282 0.30281 0.30281 0 0 1-0.30282-0.30282 0.30281 0.30281 0 0 1 0.02467-0.11949 0.53065 0.53065 0 0 0-0.09388 0.30119 0.53065 0.53065 0 0 0 0.53064 0.53064 0.53065 0.53065 0 0 0 0.53064-0.53064 0.53065 0.53065 0 0 0-0.53064-0.53065z" style="paint-order:markers fill stroke"/>
<path d="m62.435 114.74a1.2615 0.91615 50.92 0 0-0.19465 0.025 1.2615 0.91615 50.92 0 0-0.3981 1.349 1.2615 0.91615 50.92 0 0 1.4553 0.87469 1.2615 0.91615 50.92 0 0 0.3981-1.349 1.2615 0.91615 50.92 0 0-0.03465-0.0663 0.68517 0.68517 0 0 1-0.11332-0.1835 1.2615 0.91615 50.92 0 0-1.1127-0.64986zm0.05422 0.18456a1.0566 0.76741 50.92 0 1 1.056 0.7536 1.0566 0.76741 50.92 0 1-0.33347 1.13 1.0566 0.76741 50.92 0 1-1.219-0.7327 1.0566 0.76741 50.92 0 1 0.33347-1.13 1.0566 0.76741 50.92 0 1 0.16304-0.0209z" style="paint-order:markers fill stroke"/>
<path d="m68.668 112.63c-0.0022-6e-5 -0.0043-3e-5 -0.0065 1e-4 -0.05452 3e-3 -0.11718 0.0661-0.18465 0.23561-0.37465 0.94144-1.4421 1.4136-2.4674 1.5378 0.11346 0.0322 0.21861 0.0885 0.30818 0.16524 0.86918-0.1586 1.8495-0.59037 2.3524-1.5266 0.06879-0.12807 0.06526 0.54652 0.06526 0.54652s0.21207 2.3329-0.71783 3.4422c-0.15625 0.18639-0.38337 0.36387-0.65402 0.52091-2.0085 0.87009-3.9321-0.60427-3.9321-0.60427s-0.01152-7e-3 -0.01265-8e-3c-0.03851 0.0182-0.07904 0.033-0.12131 0.0443-0.02573 6e-3 -0.05204 0.0114-0.07887 0.0152 0.0062 5e-3 0.01141 8e-3 0.01772 0.0129 0.0017 2e-3 0.0035 4e-3 0.0052 6e-3 0.05266 0.0304 0.22917 0.15622 0.22917 0.15622 1.2255 0.80921 2.6283 0.99797 3.8571 0.60151 0.51219-0.16524 0.95414-0.68364 1.1491-1.1342 0.66155-1.5969 0.3878-3.6499 0.3878-3.6499 0.02201 0.0124-0.06117-0.35734-0.19667-0.36118zm-5.1529 0.46383-0.05703 1.5854c0.03519-0.10826 0.18975-0.2263 0.18975-0.2263l0.01153-0.6806s0.50183 0.69791 1.3381 0.83635c0.05856 0.01 0.12317 0.0176 0.19262 0.0236 0.07791-0.0837 0.17255-0.15015 0.27779-0.19493-0.10175 3.8e-4 -0.20168-3e-3 -0.29893-9e-3 -1.209-0.0798-1.6539-1.3345-1.6539-1.3345z"/>
<path d="m66.579 117s1.3327 0.84543 1.7487 0.95147c0.07368 0.0188 0.29365-0.57098 0.29365-0.57098s-0.70626-0.45036-1.6314-0.70151c-0.21035-0.0598-0.3928 0.3122-0.3928 0.3122z" stroke="#000" stroke-width=".007568px"/>
<path d="m68.695 117.33c-0.13141 0.0702-0.5506 0.33848-0.32299 0.72097l0.07827-0.03c0.0017-0.0211 0.03051-0.33879 0.28206-0.59554zm0.05191 0.13266s-0.19689 0.15744-0.26427 0.54593c0.52841 0.20038 0.66072 0.25285 0.66072 0.25285 0.04079 0.25287 0.22023 0.41603 0.42416 0.47311 0.70897 0.21437 0.83335 0.31694 0.85348 0.35222-0.34391-1.744-1.0858-1.2492-1.0858-1.2492zm1.6741 1.6241c9.88e-4 5e-3 2e-3 0.01 3e-3 0.0148 0 0 0.0028-5e-3 -3e-3 -0.0148z"/>
</g>
</g>
</svg>