<?xml version="1.0" encoding="UTF-8" standalone="no"?>
<!-- Created with Inkscape (http://www.inkscape.org/) -->

<svg
   width="55"
   height="52"
   viewBox="0 0 14.552084 13.758334"
   version="1.1"
   id="svg9867"
   inkscape:export-filename="../../../../j-alarcon/img/icons/gimp.png"
   inkscape:export-xdpi="96"
   inkscape:export-ydpi="96"
   inkscape:version="1.2 (1:1.2+202206011327+fc4e4096c5)"
   sodipodi:docname="gimp.svg"
   xmlns:inkscape="http://www.inkscape.org/namespaces/inkscape"
   xmlns:sodipodi="http://sodipodi.sourceforge.net/DTD/sodipodi-0.dtd"
   xmlns="http://www.w3.org/2000/svg"
   xmlns:svg="http://www.w3.org/2000/svg">
  <sodipodi:namedview
     id="namedview9869"
     pagecolor="#ffffff"
     bordercolor="#000000"
     borderopacity="0.25"
     inkscape:showpageshadow="2"
     inkscape:pageopacity="0.0"
     inkscape:pagecheckerboard="0"
     inkscape:deskcolor="#d1d1d1"
     inkscape:document-units="mm"
     showgrid="false"
     inkscape:zoom="11.516947"
     inkscape:cx="19.710085"
     inkscape:cy="24.051513"
     inkscape:window-width="1920"
     inkscape:window-height="949"
     inkscape:window-x="1920"
     inkscape:window-y="27"
     inkscape:window-maximized="1"
     inkscape:current-layer="layer1"
     showguides="true">
    <sodipodi:guide
       position="0.1378982,6.5217155"
       orientation="1,0"
       id="guide31099"
       inkscape:locked="false" />
    <sodipodi:guide
       position="9.3961174,13.638705"
       orientation="0,-1"
       id="guide31101"
       inkscape:locked="false" />
    <sodipodi:guide
       position="14.414185,7.5325447"
       orientation="1,0"
       id="guide31103"
       inkscape:locked="false" />
    <sodipodi:guide
       position="10.475867,0.11963543"
       orientation="0,-1"
       id="guide31105"
       inkscape:locked="false" />
  </sodipodi:namedview>
  <defs
     id="defs9864" />
  <g
     inkscape:label="Capa 1"
     inkscape:groupmode="layer"
     id="layer1">
    <g
       id="g88685"
       transform="matrix(1.5555245,0,0,1.5555245,-93.01124,-161.22708)">
      <rect
         style="fill:#ffffff;fill-opacity:1;stroke:#292929;stroke-width:0.41935;stroke-opacity:1"
         id="rect120393-1-7-3-6-2-2-6-0"
         width="8.7584476"
         height="8.2716551"
         x="60.092461"
         y="103.93463"
         ry="1.1387792" />
      <g
         id="g78430"
         transform="matrix(0.90834316,0,0,0.90834316,4.4635991,2.8220539)">
        <path
           d="m 68.783043,112.86114 -3.2e-5,3e-5 -0.174409,0.11628 -0.441849,0.60461 -0.930173,0.67439 -0.825538,0.18604 0.162784,0.26743 0.139526,0.60461 -0.267427,0.48836 c 0,0 -0.325564,0.2558 -0.383687,0.29068 -0.05814,0.0349 -0.627884,-0.0349 -0.69763,-0.0698 -0.06974,-0.0349 -0.325564,-0.37207 -0.325564,-0.37207 l -0.1279,-0.58137 0.220918,-0.48836 -0.162784,-0.093 -0.220918,-0.0349 -0.05814,0.1279 0.197664,0.2558 -0.02325,0.19766 v 0.47671 l -0.325565,0.32556 -0.476704,0.0349 -0.372069,-0.15115 -0.02325,0.0581 0.05814,0.48836 -0.186038,0.45346 -0.279055,0.18604 0.39534,0.37207 0.860428,0.33719 0.825537,0.23255 1.011572,0.0698 1.116207,-0.2558 0.05232,-0.0465 -0.07644,-0.11135 -0.847939,-0.5107 0.338093,-0.31871 c 0,0 0.421023,0.1229 1.048656,0.37645 0.607655,0.24548 0.892202,-2.95879 0.892202,-2.95879 z m -5.18995,0.75178 h -2.2e-5 l 2.2e-5,2e-5 z m 0,2e-5 -0.0082,1.00304 0.369976,-0.23843 0.394643,-0.0411 -0.279541,-0.32887 z m 3.031303,2.61888 c 0.270504,0.0822 0.634441,0.23236 0.686745,0.50674 -0.07817,-0.0498 -0.234454,-0.11577 -0.427965,-0.0892 -0.253405,0.0348 -0.296985,0.28523 -0.304222,0.3541 -0.338749,0.15458 -1.211282,0.0363 -1.754139,-0.14293 1.202386,0.0515 1.47146,0.009 2.053324,-0.35759 l -0.253784,-0.2711 z"
           id="path4"
           style="fill:#292929;fill-opacity:1;stroke:none;stroke-width:0.000348902;stroke-opacity:1"
           sodipodi:nodetypes="cccccccccsscccccccccccccccccccccccccscccccccccccccccccccc" />
        <path
           d="m 65.782105,114.20143 a 0.9920682,0.9920682 0 0 0 -0.992068,0.99207 0.9920682,0.9920682 0 0 0 0.992068,0.99207 0.9920682,0.9920682 0 0 0 0.992068,-0.99207 0.9920682,0.9920682 0 0 0 -0.992068,-0.99207 z m 0,0.18458 a 0.807499,0.807499 0 0 1 0.807499,0.8075 0.807499,0.807499 0 0 1 -0.807499,0.8075 0.807499,0.807499 0 0 1 -0.807499,-0.8075 0.807499,0.807499 0 0 1 0.807499,-0.8075 z"
           style="fill:#292929;fill-opacity:1;stroke:none;stroke-width:0.000348902;stroke-opacity:1;paint-order:markers fill stroke"
           id="path6" />
        <path
           d="m 64.178691,114.25911 a 0.86517251,0.86517251 0 0 0 -0.865173,0.86517 0.86517251,0.86517251 0 0 0 0.865173,0.86517 0.86517251,0.86517251 0 0 0 0.708585,-0.37053 0.9920682,0.9920682 0 0 1 -0.07882,-0.23753 0.68060331,0.68060331 0 0 1 -0.629768,0.4235 0.68060331,0.68060331 0 0 1 -0.680604,-0.6806 0.68060331,0.68060331 0 0 1 0.680604,-0.68061 0.68060331,0.68060331 0 0 1 0.649341,0.47904 0.9920682,0.9920682 0 0 1 0.09938,-0.23046 0.86517251,0.86517251 0 0 0 -0.748709,-0.43316 z"
           style="fill:#292929;fill-opacity:1;stroke:none;stroke-width:0.000348902;stroke-opacity:1;paint-order:markers fill stroke"
           id="path8" />
        <path
           d="m 64.357503,114.77824 a 0.4643189,0.4643189 0 0 0 -0.19318,0.0427 0.25955175,0.25955175 0 0 1 0.06341,-0.008 0.25955175,0.25955175 0 0 1 0.259548,0.25955 0.25955175,0.25955175 0 0 1 -0.259548,0.25955 0.25955175,0.25955175 0 0 1 -0.259566,-0.25955 0.25955175,0.25955175 0 0 1 0.03525,-0.13009 0.4643189,0.4643189 0 0 0 -0.110225,0.30024 0.4643189,0.4643189 0 0 0 0.464319,0.46432 0.4643189,0.4643189 0 0 0 0.464319,-0.46432 0.4643189,0.4643189 0 0 0 -0.464319,-0.46432 z"
           style="fill:#292929;fill-opacity:1;stroke:none;stroke-width:0.000348902;stroke-opacity:1;paint-order:markers fill stroke"
           id="path10" />
        <path
           d="m 65.984119,114.80706 a 0.53064519,0.53064519 0 0 0 -0.239343,0.0571 0.30281212,0.30281212 0 0 1 0.08072,-0.011 0.30281212,0.30281212 0 0 1 0.302816,0.30281 0.30281212,0.30281212 0 0 1 -0.302816,0.30282 0.30281212,0.30281212 0 0 1 -0.302816,-0.30282 0.30281212,0.30281212 0 0 1 0.02467,-0.11949 0.53064519,0.53064519 0 0 0 -0.09388,0.30119 0.53064519,0.53064519 0 0 0 0.530645,0.53064 0.53064519,0.53064519 0 0 0 0.530645,-0.53064 0.53064519,0.53064519 0 0 0 -0.530645,-0.53065 z"
           style="fill:#292929;fill-opacity:1;stroke:none;stroke-width:0.000348902;stroke-opacity:1;paint-order:markers fill stroke"
           id="path12" />
        <path
           d="m 62.434948,114.73731 a 1.2614555,0.91614711 50.92 0 0 -0.194646,0.025 1.2614555,0.91614711 50.92 0 0 -0.398097,1.349 1.2614555,0.91614711 50.92 0 0 1.455305,0.87469 1.2614555,0.91614711 50.92 0 0 0.398098,-1.34899 1.2614555,0.91614711 50.92 0 0 -0.03465,-0.0663 0.68517392,0.68517392 0 0 1 -0.113317,-0.1835 1.2614555,0.91614711 50.92 0 0 -1.112683,-0.64986 z m 0.05422,0.18456 a 1.05665,0.76741015 50.92 0 1 1.055987,0.7536 1.05665,0.76741015 50.92 0 1 -0.333473,1.12999 1.05665,0.76741015 50.92 0 1 -1.219029,-0.7327 1.05665,0.76741015 50.92 0 1 0.333473,-1.12999 1.05665,0.76741015 50.92 0 1 0.163042,-0.0209 z"
           style="fill:#292929;fill-opacity:1;stroke:none;stroke-width:0.000348902;stroke-opacity:1;paint-order:markers fill stroke"
           id="path14" />
        <path
           d="m 68.668223,112.63224 c -0.0022,-6e-5 -0.0043,-3e-5 -0.0065,1e-4 -0.05452,0.003 -0.117175,0.0661 -0.184653,0.23561 -0.374651,0.94144 -1.442082,1.41361 -2.467401,1.53778 0.113463,0.0322 0.218608,0.0885 0.308182,0.16524 0.869185,-0.1586 1.84953,-0.59037 2.352403,-1.52662 0.06879,-0.12807 0.06526,0.54652 0.06526,0.54652 0,0 0.212069,2.3329 -0.717831,3.44224 -0.156246,0.18639 -0.383374,0.36387 -0.654017,0.52091 -2.00849,0.87009 -3.932127,-0.60427 -3.932127,-0.60427 0,0 -0.01152,-0.007 -0.01265,-0.008 -0.03851,0.0182 -0.07904,0.033 -0.121313,0.0443 -0.02573,0.006 -0.05204,0.0114 -0.07887,0.0152 0.0062,0.005 0.01141,0.008 0.01772,0.0129 0.0017,0.002 0.0035,0.004 0.0052,0.006 0.05266,0.0304 0.229173,0.15622 0.229173,0.15622 1.225483,0.80921 2.628349,0.99797 3.857112,0.60151 0.512188,-0.16524 0.954143,-0.68364 1.149074,-1.13417 0.661554,-1.59686 0.387805,-3.64987 0.387805,-3.64987 0.02201,0.0124 -0.06117,-0.35734 -0.196669,-0.36118 z m -5.152935,0.46383 -0.05703,1.58545 c 0.03519,-0.10826 0.189751,-0.2263 0.189751,-0.2263 l 0.01153,-0.6806 c 0,0 0.501826,0.69791 1.338145,0.83635 0.05856,0.01 0.123172,0.0176 0.192618,0.0236 0.07791,-0.0837 0.172553,-0.15015 0.277789,-0.19493 -0.101747,3.8e-4 -0.201676,-0.003 -0.298929,-0.009 -1.20905,-0.0798 -1.653866,-1.33451 -1.653866,-1.33451 z"
           id="path16"
           style="fill:#292929;fill-opacity:1;stroke:none;stroke-width:0.000348902;stroke-opacity:1" />
        <path
           d="m 66.578954,117.00349 c 0,0 1.33271,0.84543 1.748706,0.95147 0.07368,0.0188 0.29365,-0.57098 0.29365,-0.57098 0,0 -0.706259,-0.45036 -1.631397,-0.70151 -0.210346,-0.0598 -0.392795,0.3122 -0.392795,0.3122 z"
           stroke="#000000"
           stroke-width="0.00756804px"
           id="path18"
           style="fill:#292929;fill-opacity:1;stroke:none;stroke-opacity:1"
           sodipodi:nodetypes="csccsc" />
        <path
           d="m 68.69474,117.33332 c -0.131411,0.0702 -0.550603,0.33848 -0.322993,0.72097 l 0.07827,-0.03 c 0.0017,-0.0211 0.03051,-0.33879 0.282063,-0.59554 z m 0.05191,0.13266 c 0,0 -0.196886,0.15744 -0.264266,0.54593 0.528413,0.20038 0.660716,0.25285 0.660716,0.25285 0.04079,0.25287 0.220234,0.41603 0.424161,0.47311 0.708969,0.21437 0.833352,0.31694 0.853484,0.35222 -0.343906,-1.74395 -1.085783,-1.24921 -1.085783,-1.24921 z m 1.674102,1.62411 c 9.88e-4,0.005 0.002,0.01 0.003,0.0148 0,0 0.0028,-0.005 -0.003,-0.0148 z"
           id="path20"
           style="fill:#292929;fill-opacity:1;stroke:none;stroke-width:0.000348902;stroke-opacity:1" />
      </g>
    </g>
  </g>
</svg>
