<!-- https://yarduon.com -->
<svg width="55" height="52" version="1.1" viewBox="0 0 14.552 13.758" xmlns="http://www.w3.org/2000/svg">
<rect x=".46405" y=".44579" width="13.624" height="12.867" ry="1.7714" fill="#f05133" stroke="#292929" stroke-width=".65231"/>
<g transform="matrix(1.2385 0 0 1.2385 -31.982 -140.69)">
<path d="m35.608 118.79-3.547-3.5469c-0.20423-0.20432-0.53552-0.20432-0.73993 0l-0.73648 0.73665 0.93426 0.93426c0.21714-0.0734 0.46611-0.0241 0.63914 0.14898 0.17408 0.17417 0.22289 0.42526 0.14765 0.6432l0.90057 0.90049c0.21794-0.0751 0.46921-0.0265 0.6432 0.14773 0.24314 0.24314 0.24314 0.63711 0 0.88042-0.24331 0.24322-0.63728 0.24322-0.88068 0-0.18284-0.18302-0.2281-0.45179-0.13536-0.67707l-0.83992-0.83983v2.2101c0.05924 0.0293 0.1152 0.0684 0.16454 0.11776 0.24314 0.24314 0.24314 0.6371 0 0.8805-0.24314 0.24305-0.63737 0.24305-0.88033 0-0.24314-0.24348-0.24314-0.63745 0-0.8805 0.06012-0.06 0.1297-0.10548 0.20397-0.13589v-2.2306c-0.07427-0.0304-0.14367-0.0754-0.20397-0.1359-0.18416-0.18407-0.22846-0.45444-0.13403-0.6806l-0.921-0.92117-2.4322 2.432c-0.20432 0.2045-0.20432 0.53578 0 0.7401l3.5472 3.547c0.20423 0.20432 0.53543 0.20432 0.73993 0l3.5305-3.5305c0.20432-0.20432 0.20432-0.53578 0-0.7401z" fill="#f6ffff" stroke-width=".088413"/>
</g>
</svg>