<?xml version="1.0" encoding="UTF-8" standalone="no"?>
<!-- Created with Inkscape (http://www.inkscape.org/) -->

<svg
   width="55"
   height="52"
   viewBox="0 0 14.552084 13.758334"
   version="1.1"
   id="svg9867"
   inkscape:export-filename="../../../../j-alarcon/img/icons/git.png"
   inkscape:export-xdpi="96"
   inkscape:export-ydpi="96"
   inkscape:version="1.2 (1:1.2+202206011327+fc4e4096c5)"
   sodipodi:docname="git.svg"
   xmlns:inkscape="http://www.inkscape.org/namespaces/inkscape"
   xmlns:sodipodi="http://sodipodi.sourceforge.net/DTD/sodipodi-0.dtd"
   xmlns="http://www.w3.org/2000/svg"
   xmlns:svg="http://www.w3.org/2000/svg">
  <sodipodi:namedview
     id="namedview9869"
     pagecolor="#ffffff"
     bordercolor="#000000"
     borderopacity="0.25"
     inkscape:showpageshadow="2"
     inkscape:pageopacity="0.0"
     inkscape:pagecheckerboard="0"
     inkscape:deskcolor="#d1d1d1"
     inkscape:document-units="mm"
     showgrid="false"
     inkscape:zoom="11.516947"
     inkscape:cx="20.534956"
     inkscape:cy="24.051512"
     inkscape:window-width="1920"
     inkscape:window-height="949"
     inkscape:window-x="1920"
     inkscape:window-y="27"
     inkscape:window-maximized="1"
     inkscape:current-layer="layer1"
     showguides="true">
    <sodipodi:guide
       position="0.1378982,6.5217155"
       orientation="1,0"
       id="guide31099"
       inkscape:locked="false" />
    <sodipodi:guide
       position="9.3961174,13.638705"
       orientation="0,-1"
       id="guide31101"
       inkscape:locked="false" />
    <sodipodi:guide
       position="14.414185,7.5325447"
       orientation="1,0"
       id="guide31103"
       inkscape:locked="false" />
    <sodipodi:guide
       position="10.475867,0.11963543"
       orientation="0,-1"
       id="guide31105"
       inkscape:locked="false" />
  </sodipodi:namedview>
  <defs
     id="defs9864" />
  <g
     inkscape:label="Capa 1"
     inkscape:groupmode="layer"
     id="layer1">
    <g
       id="g269620"
       transform="matrix(1.3280592,0,0,1.3280592,-34.822854,-151.36252)">
      <rect
         style="fill:#f05133;fill-opacity:1;stroke:#292929;stroke-width:0.491175;stroke-opacity:1"
         id="rect120393-1-7-3-6-2-2-6-0-1-6"
         width="10.258561"
         height="9.6883926"
         x="26.570282"
         y="114.30839"
         ry="1.3338249" />
      <g
         id="g269615">
        <path
           fill="#f05133"
           d="m 35.608382,118.79072 -3.547034,-3.54686 c -0.204234,-0.20432 -0.535516,-0.20432 -0.739927,0 l -0.736478,0.73665 0.934258,0.93426 c 0.217142,-0.0734 0.466112,-0.0241 0.639136,0.14898 0.174085,0.17417 0.222889,0.42526 0.147649,0.6432 l 0.900573,0.90049 c 0.217938,-0.0751 0.469207,-0.0265 0.643203,0.14773 0.243136,0.24314 0.243136,0.63711 0,0.88042 -0.243312,0.24322 -0.637279,0.24322 -0.88068,0 -0.182837,-0.18302 -0.228105,-0.45179 -0.13536,-0.67707 l -0.839921,-0.83983 v 2.21006 c 0.05924,0.0293 0.115202,0.0684 0.164536,0.11776 0.243135,0.24314 0.243135,0.6371 0,0.8805 -0.243135,0.24305 -0.637368,0.24305 -0.880326,0 -0.243136,-0.24348 -0.243136,-0.63745 0,-0.8805 0.06012,-0.06 0.129701,-0.10548 0.203968,-0.13589 v -2.23065 c -0.07427,-0.0304 -0.143671,-0.0754 -0.203968,-0.1359 -0.184164,-0.18407 -0.228459,-0.45444 -0.134034,-0.6806 l -0.920996,-0.92117 -2.432237,2.43197 c -0.204322,0.2045 -0.204322,0.53578 0,0.7401 l 3.54721,3.54695 c 0.204234,0.20432 0.535428,0.20432 0.739927,0 l 3.530501,-3.5305 c 0.204322,-0.20432 0.204322,-0.53578 0,-0.7401 z"
           id="path145690"
           style="fill:#f6ffff;fill-opacity:1;stroke-width:0.0884128" />
      </g>
    </g>
  </g>
</svg>
