<!-- https://yarduon.com -->
<svg width="55" height="52" version="1.1" viewBox="0 0 14.552 13.758" xmlns="http://www.w3.org/2000/svg">
<rect x=".46405" y=".44578" width="13.624" height="12.867" ry="1.7714" fill="#fff" stroke="#292929" stroke-width=".65231"/>
<g transform="matrix(1.4407 0 0 1.4407 -114.6 -166.01)" stroke-width=".01686">
<path d="m82.093 122.78-0.55638-6.245h6.1168l-0.55638 6.2416-2.5071 0.69463" fill="#e44d26"/>
<path d="m84.595 122.94v-5.8926h2.5004l-0.47714 5.3278" fill="#f16529"/>
<path d="m82.673 117.81h1.9221v0.76545h-1.0824l0.07081 0.78399h1.0116v0.76376h-1.713m0.03372 0.38441h0.76882l0.05395 0.61203 0.85649 0.22929v0.79917l-1.5714-0.43836" fill="#ebebeb"/>
<path d="m86.51 117.81h-1.9187v0.76545h1.8479m-0.06913 0.78399h-1.7787v0.76545h0.94417l-0.08936 0.99475-0.85481 0.22929v0.7958l1.568-0.43499" fill="#fff"/>
</g>
</svg>