<!-- https://yarduon.com -->
<svg width="55" height="52" version="1.1" viewBox="0 0 14.552 13.758" xmlns="http://www.w3.org/2000/svg">
<g>
<rect x=".46405" y=".44578" width="13.624" height="12.867" ry="1.7714" fill="#fbffff" stroke="#292929" stroke-width=".65231"/>
<g transform="matrix(.0112 0 0 .0112 1.6759 2.375)" fill="#292929">
<g transform="matrix(.1 0 0 -.1 0 194)" fill="#292929">
<path d="m4763.8 1641.6c-78.1-19.5-210-73.3-293-117.2-78.1-39.1-1050-986.5-2158.5-2095-2026.7-2031.6-2207.4-2241.6-2212.3-2563.9 0-151.4 190.5-239.3 1230.7-571.3 473.7-151.4 898.6-312.6 942.5-351.6 73.3-73.3 68.4-87.9-9.8-175.8-48.8-53.7-239.3-175.8-429.7-268.6-439.5-219.8-532.3-297.9-454.2-390.7 97.7-117.2 390.7-249 1133-498.1 1235.5-420 1338.1-527.5 937.6-976.7-239.3-268.6-263.7-346.8-151.4-459.1 73.3-78.1 170.9-102.5 561.6-156.3 517.7-73.3 634.9-161.2 634.9-478.6 0-151.4 19.5-175.8 195.3-249 424.9-170.9 1167.2-34.2 1592 288.1l180.7 136.7-127 102.6c-68.4 58.6-185.6 146.5-258.8 195.3l-131.9 97.7 156.3 131.9c87.9 73.3 356.5 214.8 595.7 312.5 449.3 185.6 927.9 473.7 1093.9 659.3 97.7 107.4 97.7 107.4-48.8 224.7-83 68.3-273.5 200.2-424.9 302.7-151.4 97.7-302.8 229.5-327.2 288.2-43.9 92.8-24.4 127 97.7 229.5 83 73.2 210 141.6 278.4 156.3 1655.6 390.6 2378.4 698.3 2500.4 1064.5 68.4 214.8 29.3 512.8-107.5 786.2-117.2 239.3-3931.2 4082.6-4214.5 4248.7-219.6 127-561.5 185.6-781.2 127zm654.4-673.9c722.7-512.8 1889.9-1401.6 1938.7-1474.8 29.3-44 63.5-117.2 83-161.2 39.1-102.5-34.2-78.1-595.8 200.2-214.8 112.3-415.1 200.2-439.5 200.2s-58.6-161.1-78.1-351.6c-19.6-195.3-44-371.1-58.6-390.7-9.8-19.5-146.5 24.4-302.8 102.6l-283.2 146.5-449.3-297.9c-258.8-175.8-463.9-278.3-488.3-253.9-19.5 24.4-102.6 268.6-175.8 546.9-78.1 273.5-156.3 483.5-180.7 459.1-19.5-19.6-122.1-234.4-224.6-473.7l-185.6-439.5-537.2-58.6c-820.4-87.9-752.1-102.5-752.1 190.5 0 341.9 122.1 576.2 542.1 1030.4 439.5 478.6 1504.1 1255.1 1719 1255.1 92.7-0.1 258.7-78.2 468.8-229.6zm-1494.4-5362.2c283.3-68.3 639.7-141.6 796-161.1 268.6-34.2 288.1-44 302.8-170.9 14.6-117.2 4.9-131.9-97.7-112.3-63.5 14.6-341.9 73.3-625.1 127-600.7 127-864.4 224.7-932.8 346.8-58.5 117.1-58.5 117.1 556.8-29.5z"/>
<path d="m8465.5-5454.2c-127-24.4-244.2-92.8-312.5-175.8l-102.6-131.9 288.1-87.9c307.6-97.7 742.3-127 952.3-68.4 234.4 63.5 239.3 361.4 9.8 463.9-141.7 68.5-542.1 68.5-835.1 0.1z"/>
<path d="m2463.6-6079.3c-131.8-53.7-312.5-278.4-312.5-395.5 0-102.6 175.8-239.3 307.7-239.3 161.2 0 717.9 351.6 717.9 454.2 0 53.8-395.6 229.5-512.8 224.7-53.8-0.1-146.6-19.6-200.3-44.1z"/>
<path d="m7820.8-6303.9c-117.2-146.5-83-288.1 107.5-429.7 127-92.8 136.7-92.8 302.8-14.7 254 122.1 205.1 307.7-122.1 473.7l-190.5 97.7z"/>
</g>
</g>
</g>
</svg>