<svg width="55" height="52" version="1.1" viewBox="0 0 14.552 13.758" xmlns="http://www.w3.org/2000/svg">
<g>
<rect x=".46405" y=".44578" width="13.624" height="12.867" ry="1.7714" fill="#f7df1e" stroke="#292929" stroke-width=".65231"/>
<path d="m9.692 10.269c0.24611 0.40184 0.56629 0.6972 1.1326 0.6972 0.47573 0 0.77963-0.23776 0.77963-0.5663 0-0.39369-0.31224-0.53313-0.83587-0.76218l-0.28703-0.1232c-0.8285-0.35298-1.3789-0.79515-1.3789-1.7299 0-0.86109 0.65609-1.5166 1.6814-1.5166 0.72998 0 1.2548 0.25406 1.633 0.91927l-0.89405 0.57405c-0.19685-0.35296-0.40921-0.49203-0.73891-0.49203-0.33628 0-0.54942 0.21334-0.54942 0.49203 0 0.34444 0.21333 0.48386 0.70593 0.6972l0.28703 0.12289c0.9755 0.41831 1.5263 0.84479 1.5263 1.8036 0 1.0337-0.81202 1.6-1.9025 1.6-1.0663 0-1.7551-0.50811-2.0922-1.1741zm-4.0558 0.09955c0.18036 0.31999 0.34444 0.59052 0.7389 0.59052 0.37721 0 0.61517-0.14762 0.61517-0.72144v-3.904h1.1481v3.9195c0 1.1888-0.69701 1.7299-1.7144 1.7299-0.91926 0-1.4516-0.47573-1.7224-1.0487z" fill="#292929" stroke-width=".019394"/>
</g>
</svg>