<?xml version="1.0" encoding="UTF-8" standalone="no"?>
<!-- Created with Inkscape (http://www.inkscape.org/) -->

<svg
   width="55"
   height="52"
   viewBox="0 0 14.552084 13.758334"
   version="1.1"
   id="svg9867"
   inkscape:export-filename="../../../../j-alarcon/img/icons/js.png"
   inkscape:export-xdpi="96"
   inkscape:export-ydpi="96"
   inkscape:version="1.2 (1:1.2+202206011327+fc4e4096c5)"
   sodipodi:docname="js.svg"
   xmlns:inkscape="http://www.inkscape.org/namespaces/inkscape"
   xmlns:sodipodi="http://sodipodi.sourceforge.net/DTD/sodipodi-0.dtd"
   xmlns="http://www.w3.org/2000/svg"
   xmlns:svg="http://www.w3.org/2000/svg">
  <sodipodi:namedview
     id="namedview9869"
     pagecolor="#ffffff"
     bordercolor="#000000"
     borderopacity="0.25"
     inkscape:showpageshadow="2"
     inkscape:pageopacity="0.0"
     inkscape:pagecheckerboard="0"
     inkscape:deskcolor="#d1d1d1"
     inkscape:document-units="mm"
     showgrid="false"
     inkscape:zoom="11.516947"
     inkscape:cx="20.534956"
     inkscape:cy="24.051512"
     inkscape:window-width="1920"
     inkscape:window-height="949"
     inkscape:window-x="1920"
     inkscape:window-y="27"
     inkscape:window-maximized="1"
     inkscape:current-layer="layer1"
     showguides="true">
    <sodipodi:guide
       position="0.1378982,6.5217155"
       orientation="1,0"
       id="guide31099"
       inkscape:locked="false" />
    <sodipodi:guide
       position="9.3961174,13.638705"
       orientation="0,-1"
       id="guide31101"
       inkscape:locked="false" />
    <sodipodi:guide
       position="14.414185,7.5325447"
       orientation="1,0"
       id="guide31103"
       inkscape:locked="false" />
    <sodipodi:guide
       position="10.475867,0.11963543"
       orientation="0,-1"
       id="guide31105"
       inkscape:locked="false" />
  </sodipodi:namedview>
  <defs
     id="defs9864" />
  <g
     inkscape:label="Capa 1"
     inkscape:groupmode="layer"
     id="layer1">
    <g
       id="g88689"
       transform="matrix(1.5555239,0,0,1.5555239,-20.825329,-161.22702)">
      <rect
         style="fill:#f7df1e;fill-opacity:1;stroke:#292929;stroke-width:0.41935;stroke-opacity:1"
         id="rect120393-1-7-3-6"
         width="8.7584476"
         height="8.2716551"
         x="13.68631"
         y="103.93463"
         ry="1.1387792" />
      <path
         d="m 19.781669,110.21305 c 0.158216,0.25833 0.364054,0.44821 0.728112,0.44821 0.305832,0 0.501199,-0.15285 0.501199,-0.36406 0,-0.25309 -0.200729,-0.34273 -0.537357,-0.48998 l -0.184522,-0.0792 c -0.532616,-0.22692 -0.886448,-0.51118 -0.886448,-1.11212 0,-0.55357 0.421779,-0.97497 1.080944,-0.97497 0.469285,0 0.806659,0.16333 1.049778,0.59097 l -0.574757,0.36904 c -0.126548,-0.22691 -0.263069,-0.31631 -0.475021,-0.31631 -0.216186,0 -0.353206,0.13715 -0.353206,0.31631 0,0.22143 0.137144,0.31106 0.453821,0.44821 l 0.184522,0.079 c 0.627123,0.26892 0.981204,0.54309 0.981204,1.15949 0,0.66453 -0.522021,1.02858 -1.223077,1.02858 -0.685471,0 -1.128322,-0.32665 -1.34501,-0.75479 z m -2.607361,0.064 c 0.115951,0.20571 0.221427,0.37963 0.475017,0.37963 0.242499,0 0.395477,-0.0949 0.395477,-0.46379 v -2.50974 h 0.738082 v 2.51971 c 0,0.76427 -0.448084,1.11212 -1.10214,1.11212 -0.590965,0 -0.933205,-0.30583 -1.107254,-0.67419 z"
         id="path12199"
         style="fill:#292929;fill-opacity:1;stroke-width:0.0124677" />
    </g>
  </g>
</svg>
