<?xml version="1.0" encoding="UTF-8" standalone="no"?>
<!-- Created with Inkscape (http://www.inkscape.org/) -->

<svg
   width="55"
   height="52"
   viewBox="0 0 14.552084 13.758334"
   version="1.1"
   id="svg9867"
   inkscape:export-filename="../../../../j-alarcon/img/icons/js.png"
   inkscape:export-xdpi="96"
   inkscape:export-ydpi="96"
   inkscape:version="1.2.2 (1:1.2.2+202212051550+b0a8486541)"
   sodipodi:docname="js.svg"
   xmlns:inkscape="http://www.inkscape.org/namespaces/inkscape"
   xmlns:sodipodi="http://sodipodi.sourceforge.net/DTD/sodipodi-0.dtd"
   xmlns="http://www.w3.org/2000/svg"
   xmlns:svg="http://www.w3.org/2000/svg">
  <sodipodi:namedview
     id="namedview9869"
     pagecolor="#ffffff"
     bordercolor="#000000"
     borderopacity="0.25"
     inkscape:showpageshadow="2"
     inkscape:pageopacity="0.0"
     inkscape:pagecheckerboard="0"
     inkscape:deskcolor="#d1d1d1"
     inkscape:document-units="mm"
     showgrid="false"
     inkscape:zoom="11.313709"
     inkscape:cx="34.073708"
     inkscape:cy="33.234019"
     inkscape:window-width="1920"
     inkscape:window-height="949"
     inkscape:window-x="1920"
     inkscape:window-y="27"
     inkscape:window-maximized="1"
     inkscape:current-layer="layer1"
     showguides="true">
    <sodipodi:guide
       position="0.1378982,6.5217155"
       orientation="1,0"
       id="guide31099"
       inkscape:locked="false" />
    <sodipodi:guide
       position="9.3961174,13.638705"
       orientation="0,-1"
       id="guide31101"
       inkscape:locked="false" />
    <sodipodi:guide
       position="14.414185,7.5325447"
       orientation="1,0"
       id="guide31103"
       inkscape:locked="false" />
    <sodipodi:guide
       position="10.475867,0.11963543"
       orientation="0,-1"
       id="guide31105"
       inkscape:locked="false" />
  </sodipodi:namedview>
  <defs
     id="defs9864" />
  <g
     inkscape:label="Capa 1"
     inkscape:groupmode="layer"
     id="layer1">
    <g
       id="g417">
      <rect
         style="fill:#f7df1e;fill-opacity:1;stroke:#292929;stroke-width:0.652309;stroke-opacity:1"
         id="rect120393-1-7-3-6"
         width="13.623975"
         height="12.866757"
         x="0.464053"
         y="0.44578311"
         ry="1.7713982" />
      <path
         d="m 9.6920074,10.269091 c 0.2461086,0.401839 0.5662946,0.697202 1.1325956,0.697202 0.475729,0 0.779627,-0.237762 0.779627,-0.566304 0,-0.393688 -0.312239,-0.5331254 -0.835872,-0.7621763 L 10.48133,9.5146152 C 9.6528331,9.1616357 9.102439,8.7194625 9.102439,7.784686 c 0,-0.8610914 0.656087,-1.5165892 1.681434,-1.5165892 0.729984,0 1.254777,0.2540638 1.632954,0.919268 l -0.894048,0.5740505 c -0.196848,-0.3529639 -0.40921,-0.4920277 -0.738906,-0.4920277 -0.336283,0 -0.549421,0.2133401 -0.549421,0.4920277 0,0.3444397 0.213331,0.4838613 0.70593,0.6972014 l 0.287028,0.1228864 c 0.975505,0.4183115 1.526286,0.8447895 1.526286,1.8036149 0,1.033692 -0.812016,1.599981 -1.902525,1.599981 -1.066267,0 -1.7551315,-0.508112 -2.0921948,-1.174094 z m -4.0558123,0.09955 c 0.1803645,0.319987 0.344435,0.590523 0.7389003,0.590523 0.3772129,0 0.6151739,-0.147619 0.6151739,-0.721436 V 6.3337711 h 1.1481042 v 3.9194699 c 0,1.18884 -0.6970054,1.729929 -1.7144051,1.729929 -0.9192602,0 -1.4516227,-0.475726 -1.7223601,-1.048719 z"
         id="path12199"
         style="fill:#292929;fill-opacity:1;stroke-width:0.0193938" />
    </g>
  </g>
</svg>
