<!-- https://yarduon.com -->
<svg width="447" height="43" version="1.1" viewBox="0 0 118.27 11.377" xmlns="http://www.w3.org/2000/svg">
<rect x="-2.4954e-9" y="-4.3167e-9" width="40.052" height="11.377" ry="1.8216e-6" fill="#292929"/>
<g fill="#fff" stroke-width=".47466">
<path d="m6.1056 5.949q0 0.20257-0.070277 0.36587-0.068209 0.16123-0.20257 0.27699-0.13229 0.11369-0.3266 0.1757-0.19224 0.062008-0.44235 0.062008-0.21911 0-0.42375-0.045478-0.20257-0.045479-0.3762-0.13643v-0.59531q0.099218 0.047546 0.2005 0.093017 0.10129 0.043411 0.20464 0.078545 0.10542 0.035142 0.20877 0.055806 0.10542 0.020672 0.20877 0.020672 0.10542 0 0.17983-0.022739 0.076478-0.024806 0.12196-0.066142 0.047546-0.043411 0.06821-0.10129 0.022739-0.059949 0.022739-0.13022 0-0.084749-0.03721-0.14883-0.035142-0.066142-0.10129-0.12196-0.064075-0.057874-0.1571-0.11162-0.090951-0.053747-0.20464-0.11369-0.095085-0.049613-0.21291-0.11989-0.11782-0.070277-0.22324-0.17363-0.10335-0.10542-0.17363-0.25218-0.070277-0.14883-0.070277-0.35553 0-0.20257 0.066142-0.36174 0.068217-0.16123 0.19224-0.27078 0.12402-0.11162 0.29972-0.1695 0.17777-0.057873 0.39688-0.057873 0.10955 0 0.21291 0.01447 0.10542 0.01447 0.20671 0.041344 0.10335 0.026873 0.20671 0.066142 0.10335 0.039277 0.21291 0.090951l-0.2067 0.49817q-0.093017-0.043411-0.17363-0.076478-0.080616-0.033075-0.1571-0.055806-0.076478-0.022739-0.1509-0.033075-0.072344-0.012403-0.14676-0.012403-0.16123 0-0.24805 0.086817-0.084749 0.084749-0.084749 0.22738 0 0.076478 0.024806 0.13643 0.026874 0.057873 0.082682 0.10955 0.057874 0.05168 0.14676 0.10542 0.09095 0.053747 0.21911 0.12196 0.15503 0.082682 0.28525 0.1695 0.13022 0.084749 0.22324 0.19017 0.095085 0.10335 0.14676 0.23564 0.051672 0.13229 0.051672 0.31006zm1.7281 0.88057q-0.11369 0-0.20464-0.024806-0.088883-0.024807-0.15916-0.06615-0.070277-0.041344-0.12402-0.093017-0.053747-0.053747-0.097152-0.11162h-0.033075q0.00827 0.072344 0.016538 0.13643 0.0062 0.053747 0.010336 0.11162 0.0062 0.055806 0.0062 0.086816v0.93638h-0.63045v-3.328h0.51263l0.088884 0.29972h0.028941q0.043411-0.070277 0.099219-0.13229 0.055814-0.062016 0.12816-0.10749 0.074411-0.047545 0.16743-0.074411 0.093017-0.028941 0.20671-0.028941 0.17983 0 0.3266 0.076478 0.14676 0.076478 0.25218 0.22738 0.10542 0.15089 0.1633 0.37414 0.057873 0.22324 0.057873 0.51676 0 0.29559-0.059949 0.5209-0.059948 0.22324-0.1695 0.37621-0.10749 0.15089-0.25838 0.22738-0.14883 0.076478-0.32866 0.076478zm-0.19637-1.8914q-0.10542 0-0.17983 0.039277-0.072344 0.037209-0.11782 0.11369-0.045478 0.076478-0.066142 0.1943-0.020672 0.11576-0.024806 0.27078v0.068209q0 0.16743 0.018605 0.29766 0.020672 0.13022 0.06615 0.21911 0.045478 0.086816 0.11989 0.13229 0.076478 0.045478 0.1881 0.045478 0.1881 0 0.27492-0.17777 0.088883-0.17983 0.088883-0.5209 0-0.34106-0.088883-0.51056-0.086817-0.17157-0.27905-0.17157zm2.8959 1.85-0.12196-0.31419h-0.0186q-0.06821 0.093017-0.13643 0.16123-0.06821 0.066142-0.14883 0.10955-0.08061 0.043411-0.1819 0.064075-0.099219 0.020672-0.23151 0.020672-0.14056 0-0.26045-0.043411-0.11989-0.045478-0.20878-0.13436-0.086816-0.09095-0.13643-0.22738-0.049613-0.13849-0.049613-0.3266 0-0.36794 0.23564-0.54157 0.23564-0.1757 0.70487-0.1943l0.36794-0.012403v-0.17363q0-0.14263-0.08268-0.21084-0.08268-0.068217-0.23151-0.068217-0.14883 0-0.29146 0.043411-0.14056 0.043411-0.28319 0.11575l-0.20464-0.41755q0.17363-0.097152 0.38447-0.15296 0.21084-0.055806 0.44235-0.055806 0.43202 0 0.66146 0.20257 0.23151 0.20257 0.23151 0.61598v1.54zm-0.18604-1.0707-0.20877 0.00827q-0.12609 0.00413-0.21291 0.033075-0.086817 0.028941-0.14056 0.078545-0.05168 0.047545-0.076478 0.11575-0.022739 0.06615-0.022739 0.14883 0 0.14469 0.070277 0.20671 0.070277 0.059949 0.18397 0.059949 0.086816 0 0.16123-0.028941 0.07441-0.031008 0.12816-0.088883 0.05581-0.059949 0.08682-0.14469 0.03101-0.086816 0.03101-0.19844zm3.2804 1.0707h-0.63045v-1.3498q0-0.25011-0.07648-0.37414-0.07441-0.12609-0.23978-0.12609-0.12402 0-0.20671 0.049613-0.08268 0.049613-0.13229 0.14676-0.04755 0.097152-0.06821 0.23978-0.02067 0.14263-0.02067 0.3266v1.0873h-0.63045v-2.311h0.48162l0.08475 0.29559h0.03514q0.04961-0.088884 0.11989-0.15296 0.07234-0.064075 0.1571-0.10542 0.08475-0.041344 0.17983-0.059949 0.09508-0.020672 0.1943-0.020672 0.1695 0 0.30799 0.049613 0.13849 0.047546 0.23771 0.15089 0.09922 0.10335 0.15296 0.26458 0.05375 0.15916 0.05375 0.38241zm0.62218-2.9084q0-0.088884 0.02687-0.14676 0.02687-0.059949 0.07234-0.095085 0.04755-0.037209 0.10955-0.05168 0.06408-0.01447 0.13436-0.01447 0.07028 0 0.13229 0.01447 0.06202 0.01447 0.10749 0.05168 0.04754 0.035142 0.07441 0.095085 0.02894 0.057873 0.02894 0.14676 0 0.086816-0.02894 0.14676-0.02687 0.059949-0.07441 0.097152-0.04548 0.035142-0.10749 0.05168-0.06202 0.01447-0.13229 0.01447-0.07028 0-0.13436-0.01447-0.06202-0.016538-0.10955-0.05168-0.04548-0.03721-0.07234-0.097152-0.02687-0.059949-0.02687-0.14676zm0.65732 2.9084h-0.63045v-2.311h0.63045zm2.2014-0.68626q0 0.1819-0.06615 0.31833-0.06614 0.13643-0.1881 0.22738-0.12196 0.09095-0.29559 0.13643-0.17363 0.045478-0.38861 0.045478-0.11369 0-0.21084-0.00827-0.09715-0.0062-0.18397-0.022739-0.08682-0.016538-0.16743-0.041344-0.08062-0.024806-0.1633-0.062016v-0.5209q0.08682 0.043411 0.1819 0.078545 0.09715 0.035142 0.19224 0.062016 0.09508 0.024806 0.18397 0.039277 0.09095 0.01447 0.16743 0.01447 0.08475 0 0.14469-0.01447 0.05995-0.016538 0.09715-0.043411 0.03928-0.028941 0.05581-0.06615 0.0186-0.039277 0.0186-0.082682 0-0.043411-0.01447-0.076478-0.0124-0.035142-0.05995-0.072344-0.047535-0.039277-0.14055-0.086817-0.09095-0.049613-0.24598-0.11989-0.1509-0.06821-0.26252-0.13436-0.10955-0.068209-0.1819-0.15089-0.070276-0.082682-0.10542-0.1881-0.035143-0.10749-0.035143-0.25425 0-0.16123 0.06202-0.28112 0.06202-0.12196 0.1757-0.20257 0.11369-0.080615 0.27285-0.11989 0.16123-0.041344 0.3576-0.041344 0.2067 0 0.39274 0.047546 0.18604 0.047545 0.3824 0.14263l-0.19017 0.44648q-0.1571-0.074411-0.29972-0.12196-0.14263-0.047546-0.28525-0.047546-0.12816 0-0.18604 0.045478-0.05581 0.045478-0.05581 0.12402 0 0.041344 0.01447 0.074411 0.01447 0.031008 0.05787 0.066142 0.04341 0.033075 0.12196 0.074411 0.07855 0.039277 0.20464 0.097152 0.14676 0.064075 0.26458 0.12816 0.11782 0.062016 0.20257 0.14263 0.08475 0.080615 0.13022 0.1881 0.04548 0.10749 0.04548 0.26045zm2.5011 0.68626h-0.63045v-1.3498q0-0.25011-0.07855-0.37414-0.07648-0.12609-0.23771-0.12609-0.12196 0-0.20464 0.049613-0.08268 0.049613-0.13229 0.14676-0.04961 0.097152-0.07028 0.23978-0.02067 0.14263-0.02067 0.3266v1.0873h-0.63045v-3.2163h0.63045v0.65526q0 0.086817-0.0041 0.18397-0.0041 0.095085-0.01034 0.1757-0.0083 0.095084-0.01447 0.18604h0.03307q0.10129-0.17983 0.25838-0.25838 0.1571-0.080615 0.35554-0.080615 0.17157 0 0.31006 0.049613 0.14056 0.047546 0.23978 0.15089 0.09922 0.10335 0.15296 0.26458 0.05375 0.15916 0.05375 0.38241z" style="inline-size:104.55;white-space:pre"/>
<path d="m21.197 5.827v-0.34727h1.0253v0.34727z" style="inline-size:104.55;white-space:pre"/>
<path d="m26.047 6.894-2.3664-2.3622 0.13123 0.04233 0.0085 2.214h-0.4445v-3.1665h0.01694l2.3368 2.3622-0.1016-0.025403-0.0085-2.2394h0.44027v3.175zm1.524-0.063499q-0.24977 0-0.45297-0.10583-0.2032-0.10583-0.32173-0.30903-0.11853-0.20743-0.11853-0.51223 0-0.29633 0.12277-0.508 0.127-0.2159 0.3302-0.3302 0.20743-0.11853 0.44873-0.11853 0.254 0 0.4191 0.10583 0.1651 0.10583 0.254 0.254l-0.0254 0.067732 0.04234-0.3556h0.3937v1.7695h-0.42757v-0.44873l0.04233 0.10583q-0.01694 0.03387-0.07197 0.097366-0.05504 0.063503-0.14393 0.13123-0.0889 0.063503-0.2159 0.11007-0.12277 0.046568-0.27517 0.046568zm0.1143-0.35137q0.21167 0 0.3556-0.11007 0.14817-0.1143 0.19473-0.30903v-0.36407q-0.0508-0.17357-0.20743-0.28787-0.1524-0.1143-0.3556-0.1143-0.1524 0-0.2794 0.0762-0.127 0.07197-0.2032 0.20743-0.0762 0.13123-0.0762 0.3048 0 0.16933 0.0762 0.3048 0.08043 0.13547 0.21167 0.2159 0.13123 0.0762 0.28363 0.0762zm1.8161-2.2352h0.4318v0.77893h0.47413v0.33443h-0.47413v1.4309h-0.4318v-1.4309h-0.31327v-0.33443h0.31327zm1.3758 0.7747h0.42757v1.7695h-0.42757zm-0.02116-0.635q0-0.097367 0.0762-0.1651 0.08043-0.067732 0.17357-0.067732 0.09313 0 0.16933 0.067732 0.0762 0.067732 0.0762 0.1651 0 0.10583-0.0762 0.16933-0.0762 0.063503-0.16933 0.063503-0.09313 0-0.17357-0.063503-0.0762-0.063503-0.0762-0.16933zm1.8542 2.4553-0.99483-1.8203h0.50377l0.65617 1.3758-0.26247-0.012697 0.5969-1.3631h0.47413l-0.9525 1.8203zm2.1632-0.00847q-0.3048 0-0.52493-0.11853-0.22013-0.12276-0.33867-0.33443-0.11853-0.2159-0.11853-0.48683 0-0.26247 0.13123-0.47413 0.13547-0.2159 0.35983-0.3429 0.22437-0.127 0.49953-0.127 0.3556 0 0.58843 0.20743 0.23707 0.2032 0.3175 0.57573l-1.4436 0.49953-0.1016-0.24553 1.1599-0.42333-0.0889 0.059265q-0.0508-0.13547-0.16087-0.23283-0.11007-0.1016-0.30057-0.1016-0.23707 0-0.38947 0.1651-0.14817 0.16087-0.14817 0.41487 0 0.27093 0.16087 0.43603 0.16087 0.1651 0.4064 0.1651 0.1143 0 0.22013-0.0381 0.10583-0.042338 0.19897-0.11007l0.19473 0.3175q-0.13547 0.0889-0.30057 0.14393-0.16087 0.050797-0.32173 0.050797z" style="inline-size:104.55;white-space:pre"/>
</g>
<rect x="78.186" y="-1.5895e-7" width="40.052" height="11.377" ry="1.8216e-6" fill="#292929"/>
<g transform="translate(3.37e-5)" fill="#fff" stroke-width=".47466">
<path d="m87.989 6.8584h-0.63045v-3.022h1.7322v0.52503h-1.1017v0.77928h1.0253v0.52297h-1.0253zm2.8484-2.3544q0.02481 0 0.05375 0.00207 0.03101 0 0.05787 0.00413 0.02894 0.00207 0.05168 0.0062 0.02481 0.00207 0.03721 0.0062v0.59118q-0.01654-0.00413-0.04548-0.00827-0.02894-0.00413-0.06202-0.0062-0.03101-0.00413-0.06201-0.00413-0.03101-0.00207-0.05168-0.00207-0.12196 0-0.22531 0.031008-0.10129 0.031008-0.1757 0.10129-0.07234 0.068209-0.11369 0.1819-0.03928 0.11162-0.03928 0.27492v1.1762h-0.63044v-2.311h0.47749l0.09302 0.34727h0.03101q0.04961-0.088883 0.10749-0.16123 0.05788-0.072344 0.12816-0.12196 0.07234-0.05168 0.16123-0.078545 0.09095-0.028941 0.2067-0.028941zm1.5668 0.44855q-0.16743 0-0.27905 0.11782-0.10955 0.11782-0.12609 0.37h0.80409q-0.0021-0.10542-0.02687-0.1943-0.02481-0.088883-0.07441-0.15296-0.04961-0.066142-0.12402-0.10335-0.07441-0.03721-0.17363-0.03721zm0.08062 1.9472q-0.24805 0-0.45682-0.072344t-0.35967-0.21704q-0.1509-0.14676-0.23564-0.36794-0.08268-0.22324-0.08268-0.52297 0-0.30386 0.07648-0.53123 0.07648-0.22738 0.21291-0.37827 0.13849-0.15296 0.33073-0.22944 0.1943-0.076478 0.42995-0.076478 0.22944 0 0.41341 0.070277 0.18604 0.068209 0.31419 0.20257 0.13022 0.13436 0.19844 0.33073 0.07028 0.1943 0.07028 0.44648v0.30592h-1.4097q0.0041 0.13229 0.04134 0.23978 0.03928 0.10542 0.10749 0.17983 0.07028 0.072344 0.16743 0.11162 0.09922 0.039277 0.22531 0.039277 0.10542 0 0.19844-0.010336 0.09508-0.012403 0.18397-0.035142 0.08888-0.022739 0.1757-0.055806 0.08682-0.035142 0.17777-0.080615v0.48783q-0.08268 0.043411-0.16743 0.074411-0.08268 0.028941-0.1757 0.049613-0.09302 0.020672-0.2005 0.028941-0.10749 0.010336-0.23564 0.010336zm3.4499-0.041344h-0.63046v-1.3498q0-0.25011-0.07648-0.37414-0.07441-0.12609-0.23978-0.12609-0.12402 0-0.20671 0.049613-0.08268 0.049613-0.13229 0.14676-0.04755 0.097152-0.06821 0.23978-0.02067 0.14263-0.02067 0.3266v1.0873h-0.63045v-2.311h0.48162l0.08475 0.29559h0.03514q0.04961-0.088884 0.11989-0.15296 0.07234-0.064075 0.1571-0.10542 0.08475-0.041344 0.17983-0.059949 0.09508-0.020672 0.1943-0.020672 0.1695 0 0.30799 0.049613 0.13849 0.047546 0.23771 0.15089 0.09922 0.10335 0.15296 0.26458 0.05375 0.15916 0.05375 0.38241zm1.6102 0.041344q-0.24805 0-0.44855-0.068209-0.19844-0.068209-0.34106-0.21084-0.14056-0.14469-0.21704-0.36794-0.07441-0.22531-0.07441-0.53743 0-0.3452 0.07648-0.57671 0.07855-0.23358 0.21911-0.37414 0.14263-0.14056 0.34106-0.2005 0.2005-0.059949 0.44442-0.059949 0.17777 0 0.35347 0.043411 0.1757 0.043411 0.33073 0.12196l-0.1819 0.47956q-0.13642-0.059949-0.26252-0.097152-0.12609-0.039277-0.23978-0.039277-0.22944 0-0.3328 0.1757-0.10335 0.17363-0.10335 0.52297 0 0.34727 0.10335 0.51263 0.10335 0.16536 0.32453 0.16536 0.17984 0 0.3266-0.045478 0.14676-0.047545 0.29972-0.11989v0.52503q-0.07648 0.03721-0.14883 0.06615-0.07234 0.028941-0.14676 0.047546-0.07234 0.018605-0.15296 0.026873-0.07855 0.010336-0.1695 0.010336zm3.1564-0.041344h-0.63046v-1.3498q0-0.25011-0.07854-0.37414-0.07648-0.12609-0.23771-0.12609-0.12196 0-0.20464 0.049613-0.08268 0.049613-0.13229 0.14676-0.04961 0.097152-0.07028 0.23978-0.02067 0.14263-0.02067 0.3266v1.0873h-0.63045v-3.2163h0.63045v0.65526q0 0.086817-0.0041 0.18397-0.0041 0.095085-0.01034 0.1757-0.0083 0.095084-0.01447 0.18604h0.03308q0.10129-0.17983 0.25838-0.25838 0.1571-0.080615 0.35553-0.080615 0.17157 0 0.31007 0.049613 0.14056 0.047546 0.23978 0.15089 0.0992 0.10335 0.15296 0.26458 0.0537 0.15916 0.0537 0.38241z" style="inline-size:104.55;white-space:pre"/>
<path d="m102.35 5.7535h0.7874v0.37253h-0.7874zm1.7272 1.1049 1.3504-3.1962h0.0254l1.3504 3.1962h-0.51223l-0.98214-2.5019 0.3175-0.20743-1.1091 2.7093zm0.81703-1.1515h1.1007l0.1524 0.381h-1.3843zm2.2564 1.1515q0.26246-0.2667 0.508-0.51647 0.24976-0.24977 0.4445-0.4826 0.19473-0.23707 0.30903-0.46143t0.1143-0.4318q0-0.17357-0.072-0.28363-0.072-0.1143-0.1905-0.1651-0.1143-0.055035-0.24553-0.055035-0.1778 0-0.28787 0.07197-0.10583 0.07197-0.15663 0.1778-0.0508 0.1016-0.0508 0.19897 0 0.1397 0.0423 0.24977 0.0423 0.11007 0.12277 0.1905l-0.27517 0.24977q-0.1016-0.063503-0.17357-0.18203-0.072-0.12277-0.11006-0.254-0.0381-0.13547-0.0381-0.2413 0-0.23283 0.1143-0.4318 0.1143-0.2032 0.33866-0.3302 0.22437-0.127 0.5461-0.127 0.27094 0 0.4699 0.127 0.19897 0.12277 0.30904 0.32597 0.1143 0.2032 0.1143 0.4445 0 0.27517-0.1397 0.53763-0.1397 0.26247-0.35137 0.51647-0.21167 0.254-0.4318 0.508l-0.19897-0.063503h1.2065v0.42757z" style="inline-size:104.55;white-space:pre"/>
</g>
<rect x="39.517" y=".53548" width="39.205" height="10.306" ry="1.6502e-6" fill="#fff" stroke="#292929" stroke-width="1.069"/>
<g fill="#292929" stroke-width=".47466">
<path d="m49.872 6.7882h-1.7405v-3.022h1.7405v0.52503h-1.0997v0.66353h1.0232v0.52503h-1.0232v0.77928h1.0997zm2.5859 0h-0.63045v-1.3498q0-0.25011-0.07648-0.37414-0.07441-0.12609-0.23978-0.12609-0.12402 0-0.2067 0.049613-0.08268 0.049613-0.13229 0.14676-0.04755 0.097152-0.06821 0.23978-0.02067 0.14263-0.02067 0.3266v1.0873h-0.63045v-2.311h0.48162l0.08475 0.29559h0.03514q0.04961-0.088884 0.11989-0.15296 0.07234-0.064075 0.1571-0.10542 0.08475-0.041344 0.17983-0.059949 0.09508-0.020672 0.1943-0.020672 0.1695 0 0.30799 0.049613 0.13849 0.047546 0.23771 0.15089 0.09922 0.10335 0.15296 0.26458 0.05374 0.15916 0.05374 0.38241zm2.5611-2.3068v0.34313l-0.33693 0.10542q0.04134 0.070277 0.05787 0.14676 0.01654 0.074411 0.01654 0.16123 0 0.1757-0.05581 0.32246-0.05581 0.14469-0.16536 0.24805-0.10955 0.10335-0.27492 0.16123-0.16537 0.055806-0.38447 0.055806-0.04754 0-0.10335-0.00413-0.05581-0.0062-0.08268-0.012403-0.04134 0.035142-0.06615 0.074411-0.02274 0.03721-0.02274 0.090951 0 0.043411 0.02687 0.070277 0.02687 0.024806 0.07028 0.041344 0.04341 0.01447 0.10129 0.020672 0.05787 0.00413 0.11989 0.00413h0.35967q0.16743 0 0.29972 0.039277 0.13229 0.037209 0.22324 0.11576 0.09302 0.078545 0.14263 0.2005 0.04961 0.11989 0.04961 0.28732 0 0.19637-0.07854 0.35347-0.07855 0.15916-0.23564 0.26872-0.15503 0.11162-0.38654 0.1695-0.23151 0.059949-0.53537 0.059949-0.23564 0-0.41134-0.045478-0.1757-0.043411-0.29352-0.12816-0.11782-0.082682-0.17777-0.2005-0.05788-0.11782-0.05788-0.26665 0-0.12609 0.04341-0.21911 0.04341-0.093017 0.11576-0.15916 0.07234-0.066142 0.1633-0.10749 0.09302-0.041344 0.19017-0.064075-0.04341-0.018605-0.08682-0.05168-0.04134-0.033075-0.07648-0.076478-0.03308-0.043411-0.05581-0.095085-0.02067-0.053747-0.02067-0.11162 0-0.066142 0.01861-0.11989 0.02067-0.053747 0.05787-0.099219 0.03721-0.047545 0.09302-0.088883 0.05582-0.041344 0.12609-0.084749-0.1819-0.078546-0.28939-0.25218-0.10542-0.17363-0.10542-0.40928 0-0.18603 0.05787-0.3328 0.05787-0.14676 0.1695-0.24805 0.11162-0.10335 0.27698-0.1571 0.16536-0.053747 0.38034-0.053747 0.04134 0 0.09302 0.0062 0.05167 0.00413 0.10128 0.012403 0.05168 0.0062 0.09508 0.01447 0.04341 0.00827 0.06821 0.01447zm-1.6536 2.6334q0 0.05168 0.02067 0.099219 0.02274 0.049613 0.07234 0.086817 0.04961 0.037209 0.13022 0.057873 0.08062 0.022739 0.19844 0.022739 0.32246 0 0.48576-0.09095 0.1633-0.090951 0.1633-0.24391 0-0.13022-0.10129-0.17363-0.10129-0.043411-0.31419-0.043411h-0.29146q-0.05581 0-0.11989 0.012403-0.06407 0.01447-0.11782 0.047546-0.05375 0.033075-0.09095 0.086817-0.03514 0.055806-0.03514 0.13849zm0.22738-1.881q0 0.1881 0.07028 0.29146 0.07028 0.10335 0.21291 0.10335 0.14883 0 0.21498-0.10335 0.06614-0.10335 0.06614-0.29146 0-0.18604-0.06614-0.29559-0.06408-0.10955-0.21498-0.10955-0.28319 0-0.28319 0.40514zm2.4805 1.5544h-0.63045v-3.2163h0.63045zm0.63459-2.9084q0-0.088884 0.02687-0.14676 0.02687-0.059949 0.07234-0.095085 0.04754-0.037209 0.10955-0.05168 0.06408-0.01447 0.13436-0.01447 0.07028 0 0.13229 0.01447 0.06202 0.01447 0.10749 0.05168 0.04755 0.035142 0.07441 0.095085 0.02894 0.057873 0.02894 0.14676 0 0.086816-0.02894 0.14676-0.02687 0.059949-0.07441 0.097152-0.04548 0.035142-0.10749 0.05168-0.06202 0.01447-0.13229 0.01447-0.07028 0-0.13436-0.01447-0.06202-0.016538-0.10955-0.05168-0.04548-0.03721-0.07234-0.097152-0.02687-0.059949-0.02687-0.14676zm0.65732 2.9084h-0.63045v-2.311h0.63045zm2.2014-0.68626q0 0.1819-0.06614 0.31833-0.06614 0.13643-0.1881 0.22738-0.12196 0.09095-0.29559 0.13643-0.17363 0.045478-0.38861 0.045478-0.11369 0-0.21084-0.00827-0.09715-0.0062-0.18397-0.022739-0.08682-0.016538-0.16743-0.041344-0.08062-0.024806-0.1633-0.062016v-0.5209q0.08682 0.043411 0.1819 0.078545 0.09715 0.035142 0.19224 0.062016 0.09509 0.024806 0.18397 0.039277 0.09095 0.01447 0.16743 0.01447 0.08475 0 0.14469-0.01447 0.05995-0.016538 0.09715-0.043411 0.03928-0.028941 0.05581-0.06615 0.0186-0.039277 0.0186-0.082682 0-0.043411-0.01447-0.076478-0.0124-0.035142-0.05995-0.072344-0.04755-0.039277-0.14056-0.086817-0.09095-0.049613-0.24598-0.11989-0.1509-0.06821-0.26252-0.13436-0.10955-0.068209-0.1819-0.15089-0.07028-0.082682-0.10542-0.1881-0.03514-0.10749-0.03514-0.25425 0-0.16123 0.06202-0.28112 0.06202-0.12196 0.1757-0.20257 0.11369-0.080615 0.27285-0.11989 0.16123-0.041344 0.3576-0.041344 0.20671 0 0.39274 0.047546 0.18603 0.047545 0.3824 0.14263l-0.19017 0.44648q-0.1571-0.074411-0.29972-0.12196-0.14263-0.047546-0.28526-0.047546-0.12816 0-0.18604 0.045478-0.05581 0.045478-0.05581 0.12402 0 0.041344 0.01447 0.074411 0.01447 0.031008 0.05787 0.066142 0.04341 0.033075 0.12196 0.074411 0.07855 0.039277 0.20464 0.097152 0.14676 0.064075 0.26458 0.12816 0.11782 0.062016 0.20257 0.14263 0.08475 0.080615 0.13022 0.1881 0.04548 0.10749 0.04548 0.26045zm2.5011 0.68626h-0.63045v-1.3498q0-0.25011-0.07854-0.37414-0.07648-0.12609-0.23771-0.12609-0.12196 0-0.20464 0.049613-0.08268 0.049613-0.13229 0.14676-0.04961 0.097152-0.07028 0.23978-0.02067 0.14263-0.02067 0.3266v1.0873h-0.63046v-3.2163h0.63045v0.65526q0 0.086817-0.0041 0.18397-0.0041 0.095085-0.01034 0.1757-0.0083 0.095084-0.01447 0.18604h0.03307q0.10129-0.17983 0.25838-0.25838 0.1571-0.080615 0.35553-0.080615 0.17157 0 0.31006 0.049613 0.14056 0.047546 0.23978 0.15089 0.09922 0.10335 0.15296 0.26458 0.05375 0.15916 0.05375 0.38241z" style="inline-size:104.55;white-space:pre"/>
<path d="m63.715 5.6833h0.7874v0.37253h-0.7874zm2.8533-1.9643q0.46567 0 0.73237 0.1905 0.2667 0.1905 0.2667 0.5842 0 0.24977-0.1143 0.4318-0.1143 0.1778-0.32173 0.2794-0.2032 0.1016-0.47837 0.1143l-0.0635-0.23707q0.32173 0.00847 0.57573 0.1143 0.254 0.1016 0.40217 0.28787 0.1524 0.18203 0.1524 0.43603 0 0.23283-0.0889 0.39793-0.08467 0.1651-0.23283 0.27093-0.14393 0.1016-0.3302 0.1524-0.18203 0.046568-0.381 0.046568h-0.9271v-3.0692zm0.08043 1.3293q0.2413 0 0.35137-0.13547 0.11007-0.1397 0.11007-0.32597 0-0.2286-0.14393-0.33443-0.1397-0.10583-0.37677-0.10583h-0.38947v0.9017zm0.01694 1.3293q0.24977 0 0.42333-0.11007 0.17357-0.11007 0.17357-0.3429 0-0.16933-0.09313-0.2667-0.09313-0.097366-0.23707-0.1397-0.14393-0.04233-0.29633-0.04233h-0.43604v0.9017zm1.524 0.41063q0.26247-0.2667 0.508-0.51647 0.24977-0.24977 0.4445-0.4826 0.19473-0.23707 0.30903-0.46143 0.1143-0.22437 0.1143-0.4318 0-0.17357-0.07197-0.28363-0.07197-0.1143-0.1905-0.1651-0.1143-0.055035-0.24553-0.055035-0.1778 0-0.28787 0.07197-0.10583 0.07197-0.15663 0.1778-0.0508 0.1016-0.0508 0.19897 0 0.1397 0.04233 0.24977 0.04233 0.11007 0.12277 0.1905l-0.27517 0.24977q-0.1016-0.063503-0.17357-0.18203-0.07197-0.12277-0.11007-0.254-0.0381-0.13547-0.0381-0.2413 0-0.23283 0.1143-0.4318 0.1143-0.2032 0.33867-0.3302 0.22437-0.127 0.5461-0.127 0.27093 0 0.4699 0.127 0.19897 0.12277 0.30903 0.32597 0.1143 0.2032 0.1143 0.4445 0 0.27517-0.1397 0.53763-0.1397 0.26247-0.35137 0.51647-0.21167 0.254-0.4318 0.508l-0.19897-0.063503h1.2065v0.42757z" style="inline-size:104.55;white-space:pre"/>
</g>
</svg>