<?xml version="1.0" encoding="UTF-8" standalone="no"?>
<!-- Created with Inkscape (http://www.inkscape.org/) -->

<svg
   width="447"
   height="43"
   viewBox="0 0 118.26874 11.377083"
   version="1.1"
   id="svg7864"
   inkscape:version="1.3 (1:1.3+202307231459+0e150ed6c4)"
   sodipodi:docname="languages.svg"
   inkscape:export-filename="languages.png"
   inkscape:export-xdpi="96"
   inkscape:export-ydpi="96"
   xmlns:inkscape="http://www.inkscape.org/namespaces/inkscape"
   xmlns:sodipodi="http://sodipodi.sourceforge.net/DTD/sodipodi-0.dtd"
   xmlns="http://www.w3.org/2000/svg"
   xmlns:svg="http://www.w3.org/2000/svg">
  <sodipodi:namedview
     id="namedview7866"
     pagecolor="#ffffff"
     bordercolor="#000000"
     borderopacity="0.25"
     inkscape:showpageshadow="2"
     inkscape:pageopacity="0.0"
     inkscape:pagecheckerboard="0"
     inkscape:deskcolor="#d1d1d1"
     inkscape:document-units="mm"
     showgrid="false"
     inkscape:zoom="2.0000001"
     inkscape:cx="257.49999"
     inkscape:cy="67.749998"
     inkscape:window-width="1920"
     inkscape:window-height="949"
     inkscape:window-x="1920"
     inkscape:window-y="27"
     inkscape:window-maximized="1"
     inkscape:current-layer="layer1"
     showguides="true" />
  <defs
     id="defs7861" />
  <g
     inkscape:label="Capa 1"
     inkscape:groupmode="layer"
     id="layer1">
    <rect
       style="fill:#292929;fill-opacity:1;stroke:none;stroke-width:1.28373;stroke-dasharray:none;stroke-opacity:1"
       id="rect21517-1-36-4"
       width="40.052132"
       height="11.377084"
       x="-2.4954223e-09"
       y="-4.3166732e-09"
       ry="1.8216313e-06" />
    <g
       id="g8">
      <path
         style="font-weight:bold;font-size:5.32445px;font-family:'Droid Sans';-inkscape-font-specification:'Droid Sans Bold';white-space:pre;inline-size:104.55;fill:#ffffff;stroke-width:0.47466"
         d="m 6.1055614,5.9489907 q 0,0.2025723 -0.070277,0.3658695 Q 5.9670753,6.476091 5.8327132,6.5918459 5.7004216,6.7055344 5.506118,6.7675463 q -0.1922363,0.062008 -0.4423509,0.062008 -0.2191074,0 -0.4237469,-0.045478 Q 4.4374487,6.7385976 4.2638163,6.6476506 V 6.0523377 q 0.099218,0.047546 0.2005043,0.093017 0.1012862,0.043411 0.2046387,0.078545 0.1054198,0.035142 0.2087731,0.055806 0.1054197,0.020672 0.2087731,0.020672 0.1054197,0 0.1798339,-0.022739 0.076478,-0.024806 0.1219565,-0.066142 0.047546,-0.043411 0.06821,-0.1012861 0.022739,-0.059949 0.022739,-0.1302245 0,-0.084749 -0.03721,-0.1488284 Q 5.4068927,5.765016 5.3407497,5.7092018 5.2766746,5.6513283 5.1836533,5.5975812 5.0927023,5.5438342 4.9790138,5.4838927 4.8839292,5.4342801 4.7661071,5.3640034 4.648285,5.2937268 4.5428645,5.1903703 4.4395119,5.0849505 4.3692321,4.9381893 4.2989554,4.7893608 4.2989554,4.582655 q 0,-0.2025715 0.066142,-0.3617351 0.068217,-0.16123 0.1922363,-0.2707842 0.1240237,-0.1116213 0.2997241,-0.1694988 0.1777667,-0.057873 0.396875,-0.057873 0.1095541,0 0.2129067,0.01447 0.1054197,0.01447 0.2067059,0.041344 0.1033525,0.026873 0.2067058,0.066142 0.1033526,0.039277 0.2129067,0.090951 L 5.8864531,4.4338377 Q 5.7934358,4.3904266 5.7128208,4.3573594 5.632205,4.3242843 5.5557243,4.3015531 5.4792461,4.278814 5.4048287,4.268478 5.3324849,4.2560749 5.2580675,4.2560749 q -0.16123,0 -0.2480466,0.086817 -0.084749,0.084749 -0.084749,0.2273762 0,0.076478 0.024806,0.1364261 0.026874,0.057873 0.082682,0.1095541 0.057874,0.05168 0.1467613,0.1054197 0.09095,0.053747 0.2191082,0.1219565 0.1550292,0.082682 0.2852537,0.1694988 0.1302245,0.084749 0.2232427,0.1901699 0.095085,0.1033526 0.1467612,0.2356442 0.051672,0.1322917 0.051672,0.3100585 z m 1.7280605,0.8805674 q -0.1136877,0 -0.2046387,-0.024806 Q 7.5401002,6.7799455 7.4698196,6.7386016 7.399543,6.6972577 7.3457967,6.6455842 7.2920497,6.5918372 7.248645,6.5339629 H 7.21557 q 0.00827,0.072344 0.016538,0.1364261 0.0062,0.053747 0.010336,0.1116213 0.0062,0.055806 0.0062,0.086816 V 7.8052037 H 6.6181921 V 4.47724 H 7.130822 l 0.088884,0.2997232 h 0.028941 q 0.043411,-0.070277 0.099219,-0.1322916 0.055814,-0.062016 0.1281573,-0.107487 0.074411,-0.047545 0.1674316,-0.074411 0.093017,-0.028941 0.2067059,-0.028941 0.1798339,0 0.3265951,0.076478 0.1467613,0.076478 0.252181,0.2273771 0.1054198,0.1508948 0.163298,0.3741374 0.057873,0.2232419 0.057873,0.5167643 0,0.2955897 -0.059949,0.5208988 Q 8.5302106,6.3727305 8.4206605,6.5256933 8.3131736,6.6765882 8.1622779,6.7530696 8.0134503,6.8295478 7.8336155,6.8295478 Z M 7.637252,4.9381996 q -0.1054205,0 -0.1798348,0.039277 -0.072344,0.037209 -0.1178221,0.1136877 -0.045478,0.076478 -0.066142,0.1943035 -0.020672,0.1157558 -0.024806,0.270785 v 0.068209 q 0,0.1674316 0.018605,0.2976569 0.020672,0.1302245 0.06615,0.2191082 0.045478,0.086816 0.1198893,0.1322917 0.076478,0.045478 0.1881019,0.045478 0.1881028,0 0.2749194,-0.1777668 0.088883,-0.1798347 0.088883,-0.5208987 0,-0.3410647 -0.088883,-0.5105635 Q 7.8294955,4.938202 7.6372591,4.938202 Z M 10.5332,6.7882166 10.411244,6.4740238 h -0.0186 q -0.06821,0.093017 -0.136426,0.1612308 -0.06821,0.066142 -0.148829,0.1095541 -0.08061,0.043411 -0.1819001,0.064075 -0.099219,0.020672 -0.2315106,0.020672 -0.1405604,0 -0.2604498,-0.043411 Q 9.3136342,6.7406664 9.2247505,6.6517858 9.1379347,6.5608356 9.0883252,6.4244096 9.0387125,6.2859171 9.0387125,6.0978144 q 0,-0.3679359 0.2356443,-0.5415691 0.235645,-0.1757003 0.704867,-0.1943035 L 10.347161,5.3495386 V 5.1759055 q 0,-0.1426269 -0.08268,-0.2108395 -0.08268,-0.068217 -0.23151,-0.068217 -0.1488287,0 -0.2914556,0.043411 Q 9.600952,4.9836707 9.4583251,5.0560146 L 9.2536864,4.6384692 q 0.1736332,-0.097152 0.3844727,-0.1529628 0.2108402,-0.055806 0.4423509,-0.055806 0.432015,0 0.661458,0.2025715 0.231511,0.2025723 0.231511,0.6159833 v 1.5399586 z m -0.186035,-1.0707357 -0.208773,0.00827 q -0.126091,0.00413 -0.2129065,0.033075 -0.086817,0.028941 -0.1405604,0.078545 -0.05168,0.047545 -0.076478,0.1157549 -0.022739,0.06615 -0.022739,0.1488284 0,0.1446941 0.070277,0.2067059 0.070277,0.059949 0.1839675,0.059949 0.086816,0 0.1612314,-0.028941 0.07441,-0.031008 0.128157,-0.088883 0.05581,-0.059949 0.08682,-0.1446948 0.03101,-0.086816 0.03101,-0.1984371 z m 3.280422,1.0707357 H 12.997134 V 5.438428 q 0,-0.2501146 -0.07648,-0.3741375 -0.07441,-0.1260909 -0.239779,-0.1260909 -0.124024,0 -0.206706,0.049613 -0.08268,0.049613 -0.132291,0.1467612 -0.04755,0.097152 -0.06821,0.2397786 -0.02067,0.1426269 -0.02067,0.3265952 V 6.7882198 H 11.622545 V 4.4772487 h 0.481625 l 0.08475,0.2955897 h 0.03514 q 0.04961,-0.088884 0.119889,-0.1529628 0.07234,-0.064075 0.157097,-0.1054198 0.08475,-0.041344 0.179834,-0.059949 0.09508,-0.020672 0.194303,-0.020672 0.169499,0 0.307992,0.049613 0.138493,0.047546 0.237712,0.1508949 0.09922,0.1033533 0.152962,0.2645833 0.05375,0.1591636 0.05375,0.3824063 z m 0.622184,-2.9083504 q 0,-0.088884 0.02687,-0.1467612 0.02687,-0.059949 0.07234,-0.095085 0.04755,-0.037209 0.109554,-0.05168 0.06408,-0.01447 0.134359,-0.01447 0.07028,0 0.132292,0.01447 0.06202,0.01447 0.107487,0.05168 0.04754,0.035142 0.07441,0.095085 0.02894,0.057873 0.02894,0.1467612 0,0.086816 -0.02894,0.1467605 -0.02687,0.059949 -0.07441,0.097152 -0.04548,0.035142 -0.107487,0.05168 -0.06202,0.01447 -0.132292,0.01447 -0.07028,0 -0.134359,-0.01447 -0.06202,-0.016538 -0.109554,-0.05168 -0.04548,-0.03721 -0.07234,-0.097152 -0.02687,-0.059949 -0.02687,-0.1467605 z m 0.657325,2.9083504 h -0.630453 v -2.310971 h 0.630453 z m 2.201417,-0.6862631 q 0,0.1819012 -0.06615,0.3183272 -0.06614,0.1364253 -0.188102,0.2273763 -0.121956,0.09095 -0.295589,0.1364252 -0.173633,0.045478 -0.388607,0.045478 -0.113688,0 -0.21084,-0.00827 -0.09715,-0.0062 -0.183968,-0.022739 -0.08682,-0.016538 -0.167432,-0.041344 -0.08062,-0.024806 -0.163298,-0.062016 v -0.520897 q 0.08682,0.043411 0.181901,0.078545 0.09715,0.035142 0.192238,0.062016 0.09508,0.024806 0.183967,0.039277 0.09095,0.01447 0.167432,0.01447 0.08475,0 0.144694,-0.01447 0.05995,-0.016538 0.09715,-0.043411 0.03928,-0.028941 0.05581,-0.06615 0.0186,-0.039277 0.0186,-0.082682 0,-0.043411 -0.01447,-0.076478 -0.0124,-0.035142 -0.05995,-0.072344 Q 16.364364,5.9737899 16.27135,5.92625 16.1804,5.8766373 16.02537,5.8063607 15.874475,5.7381512 15.762853,5.6720018 15.653299,5.6037924 15.580952,5.521107 15.510676,5.4384248 15.475533,5.3330043 15.44039,5.2255173 15.44039,5.0787561 q 0,-0.16123 0.06202,-0.2811193 0.06202,-0.1219565 0.1757,-0.2025723 0.113688,-0.080615 0.272852,-0.1198893 0.16123,-0.041344 0.357601,-0.041344 0.206705,0 0.392741,0.047546 0.186035,0.047545 0.382405,0.1426268 L 16.89354,5.0704885 Q 16.736444,4.9960775 16.593816,4.948532 16.451189,4.900986 16.308563,4.900986 q -0.128158,0 -0.186036,0.045478 -0.05581,0.045478 -0.05581,0.1240237 0,0.041344 0.01447,0.074411 0.01447,0.031008 0.05787,0.066142 0.04341,0.033075 0.121956,0.074411 0.07855,0.039277 0.204639,0.097152 0.146761,0.064075 0.264583,0.1281581 0.117822,0.062016 0.202572,0.1426268 0.08475,0.080615 0.130225,0.188102 0.04548,0.1074869 0.04548,0.2604497 z m 2.501139,0.6862631 H 18.9792 V 5.438428 q 0,-0.2501146 -0.07855,-0.3741375 -0.07648,-0.1260909 -0.237711,-0.1260909 -0.121956,0 -0.204639,0.049613 -0.08268,0.049613 -0.132291,0.1467612 -0.04961,0.097152 -0.07028,0.2397786 -0.02067,0.1426269 -0.02067,0.3265952 V 6.7882198 H 17.604611 V 3.5718774 h 0.630453 V 4.227135 q 0,0.086817 -0.0041,0.1839683 -0.0041,0.095085 -0.01034,0.1756996 -0.0083,0.095084 -0.01447,0.1860355 h 0.03307 q 0.101286,-0.179834 0.258382,-0.2583826 0.157097,-0.080615 0.355535,-0.080615 0.171566,0 0.310058,0.049613 0.14056,0.047546 0.239779,0.1508948 0.09922,0.1033534 0.152962,0.2645834 0.05375,0.1591636 0.05375,0.3824062 z"
         id="path8" />
      <path
         style="font-weight:normal;font-size:5.32445px;font-family:'Droid Sans';-inkscape-font-specification:'Droid Sans';white-space:pre;inline-size:104.55;fill:#ffffff;stroke-width:0.47466"
         d="M 21.197154,5.827035 V 5.4797687 h 1.02526 V 5.827035 Z"
         id="path2" />
      <path
         style="font-weight:normal;font-size:5.32445px;font-family:'Reem Kufi';-inkscape-font-specification:'Reem Kufi';white-space:pre;inline-size:104.55;fill:#ffffff;stroke-width:0.47466"
         d="m 26.047444,6.8940498 -2.366435,-2.3622009 0.131233,0.04233 0.0085,2.214034 h -0.4445 v -3.166535 h 0.01694 l 2.336801,2.3622017 -0.101601,-0.025403 -0.0085,-2.2394342 h 0.440267 v 3.175001 z m 1.523992,-0.063499 q -0.249766,0 -0.452966,-0.105834 Q 26.91527,6.6188836 26.796736,6.4156832 26.678203,6.2082498 26.678203,5.90345 q 0,-0.296333 0.122766,-0.5080002 0.127001,-0.2159001 0.330201,-0.3302 0.207433,-0.1185337 0.448733,-0.1185337 0.254,0 0.419101,0.1058339 0.165099,0.1058332 0.254,0.2540001 l -0.0254,0.067732 0.04234,-0.3556003 h 0.393699 v 1.769534 H 28.236072 V 6.3394821 l 0.04233,0.105834 q -0.01694,0.03387 -0.07197,0.097366 -0.05504,0.063503 -0.143933,0.1312334 -0.0889,0.063503 -0.2159,0.110067 -0.122767,0.046568 -0.275167,0.046568 z m 0.1143,-0.3513674 q 0.211667,0 0.3556,-0.1100661 0.148167,-0.1143007 0.194734,-0.3090336 v -0.364067 q -0.0508,-0.1735664 -0.207433,-0.2878672 -0.1524,-0.1142999 -0.355601,-0.1142999 -0.152399,0 -0.2794,0.0762 -0.127,0.07197 -0.2032,0.2074334 -0.0762,0.1312334 -0.0762,0.3048006 0,0.1693334 0.0762,0.3047998 0.08043,0.1354672 0.211667,0.2159001 0.131233,0.0762 0.283633,0.0762 z M 29.501835,4.243983 h 0.431801 v 0.778933 h 0.474133 V 5.3573494 H 29.933636 V 6.7882166 H 29.501835 V 5.3573494 H 29.188569 V 5.0229156 h 0.313266 z m 1.375832,0.7747 h 0.427568 v 1.769534 h -0.427568 z m -0.02116,-0.635001 q 0,-0.097367 0.0762,-0.1650997 0.08043,-0.067732 0.173567,-0.067732 0.09313,0 0.169333,0.067732 0.0762,0.067732 0.0762,0.1650997 0,0.1058339 -0.0762,0.1693334 -0.0762,0.063503 -0.169333,0.063503 -0.09313,0 -0.173567,-0.063503 -0.0762,-0.063503 -0.0762,-0.1693334 z M 32.7107,6.8390163 31.715866,5.0186826 h 0.503767 l 0.656168,1.3758337 -0.262467,-0.012697 0.5969,-1.363134 h 0.474134 L 32.731867,6.839019 Z m 2.163218,-0.00847 q -0.3048,0 -0.524933,-0.1185337 Q 34.128851,6.58925 34.010318,6.3775828 33.891784,6.1616827 33.891784,5.8907499 q 0,-0.2624669 0.131234,-0.474134 0.135467,-0.2159001 0.359833,-0.3428998 0.224367,-0.1270004 0.499534,-0.1270004 0.3556,0 0.588433,0.2074333 0.237067,0.2032004 0.317501,0.5757343 l -1.443568,0.4995334 -0.101599,-0.2455333 1.159933,-0.4233336 -0.0889,0.059265 Q 35.263385,5.4843476 35.153318,5.3869812 35.043252,5.285381 34.852751,5.285381 q -0.237066,0 -0.389466,0.1651004 -0.148167,0.1608667 -0.148167,0.4148668 0,0.2709336 0.160866,0.4360332 0.160867,0.1651004 0.406401,0.1651004 0.1143,0 0.220133,-0.0381 0.105833,-0.042338 0.198967,-0.110067 l 0.194734,0.3175003 q -0.135468,0.0889 -0.300567,0.1439332 -0.160867,0.050797 -0.321734,0.050797 z"
         id="path3" />
    </g>
    <rect
       style="fill:#292929;fill-opacity:1;stroke:none;stroke-width:1.28373;stroke-dasharray:none;stroke-opacity:1"
       id="rect21517-1-36-4-2"
       width="40.052132"
       height="11.377084"
       x="78.186195"
       y="-1.5894572e-07"
       ry="1.8216311e-06" />
    <g
       id="g10"
       transform="translate(3.3699951e-5)">
      <path
         style="font-weight:bold;font-size:5.32445px;font-family:'Droid Sans';-inkscape-font-specification:'Droid Sans Bold';white-space:pre;inline-size:104.55;fill:#ffffff;stroke-width:0.47466"
         d="M 87.988838,6.8584206 H 87.358385 V 3.8363817 h 1.732195 v 0.5250331 h -1.101742 v 0.7792805 h 1.02526 v 0.5229659 h -1.02526 z m 2.848405,-2.3543789 q 0.02481,0 0.05375,0.00207 0.03101,0 0.05787,0.00413 0.02894,0.00207 0.05168,0.0062 0.02481,0.00207 0.03721,0.0062 v 0.5911785 q -0.01654,-0.00413 -0.04548,-0.00827 -0.02894,-0.00413 -0.06202,-0.0062 -0.03101,-0.00413 -0.06201,-0.00413 -0.03101,-0.00207 -0.05168,-0.00207 -0.121957,0 -0.22531,0.031008 -0.101286,0.031008 -0.1757,0.1012862 -0.07234,0.068209 -0.113688,0.1819011 -0.03928,0.1116213 -0.03928,0.2749185 v 1.176159 h -0.63044 V 4.5474519 h 0.477491 l 0.09302,0.3472656 h 0.03101 q 0.04961,-0.088883 0.107487,-0.16123 0.05788,-0.072344 0.128158,-0.1219565 0.07234,-0.05168 0.161231,-0.078545 0.09095,-0.028941 0.206705,-0.028941 z m 1.566831,0.4485517 q -0.167432,0 -0.279053,0.1178221 -0.109554,0.1178221 -0.126091,0.370003 h 0.804086 q -0.0021,-0.1054197 -0.02687,-0.1943035 -0.02481,-0.088883 -0.07441,-0.152962 -0.04961,-0.066142 -0.124024,-0.1033525 -0.07441,-0.03721 -0.173632,-0.03721 z m 0.08062,1.9471687 q -0.248047,0 -0.45682,-0.072344 -0.208773,-0.072344 -0.359668,-0.2170411 -0.150895,-0.1467612 -0.235645,-0.3679367 -0.08268,-0.2232426 -0.08268,-0.5229659 0,-0.3038576 0.07648,-0.5312339 0.07648,-0.2273762 0.212907,-0.3782718 0.138493,-0.152962 0.33073,-0.2294434 0.194303,-0.076478 0.429947,-0.076478 0.229444,0 0.413412,0.070277 0.186035,0.068209 0.314193,0.2025715 0.130224,0.1343588 0.198437,0.3307296 0.07028,0.1943035 0.07028,0.4464844 v 0.3059249 h -1.409734 q 0.0041,0.1322917 0.04134,0.2397786 0.03928,0.1054197 0.107486,0.179834 0.07028,0.072344 0.167432,0.1116213 0.09922,0.039277 0.225309,0.039277 0.105421,0 0.198438,-0.010336 0.09508,-0.012403 0.183968,-0.035142 0.08888,-0.022739 0.1757,-0.055806 0.08682,-0.035142 0.177767,-0.080615 v 0.4878252 q -0.08268,0.043411 -0.167432,0.074411 -0.08268,0.028941 -0.175699,0.049613 -0.09302,0.020672 -0.200505,0.028941 -0.107487,0.010336 -0.235645,0.010336 z m 3.44992,-0.041344 H 95.304156 V 5.5086296 q 0,-0.2501146 -0.07648,-0.3741375 -0.07441,-0.1260909 -0.239778,-0.1260909 -0.124024,0 -0.206706,0.049613 -0.08268,0.049613 -0.132292,0.1467612 -0.04755,0.097152 -0.06821,0.2397786 -0.02067,0.1426269 -0.02067,0.3265952 v 1.0872725 h -0.630453 v -2.310971 h 0.481624 l 0.08475,0.2955896 h 0.03514 q 0.04961,-0.088884 0.119889,-0.1529628 0.07234,-0.064075 0.157097,-0.1054197 0.08475,-0.041344 0.179834,-0.059949 0.09508,-0.020672 0.194303,-0.020672 0.169499,0 0.307992,0.049613 0.138493,0.047546 0.237712,0.1508949 0.09922,0.1033533 0.152962,0.2645833 0.05375,0.1591636 0.05375,0.3824063 z m 1.610239,0.041344 q -0.248048,0 -0.448552,-0.068209 -0.198438,-0.068209 -0.341065,-0.2108395 -0.140559,-0.144694 -0.217041,-0.3679367 -0.07441,-0.225309 -0.07441,-0.5374347 0,-0.3451991 0.07648,-0.5767097 0.07855,-0.2335771 0.219109,-0.3741375 0.142626,-0.1405597 0.341064,-0.2005043 0.200505,-0.059949 0.444418,-0.059949 0.177766,0 0.353467,0.043411 0.175699,0.043411 0.330729,0.1219565 L 98.04715,5.1489664 q -0.136425,-0.059949 -0.262516,-0.097152 -0.126091,-0.039277 -0.239778,-0.039277 -0.229444,0 -0.332797,0.1756996 -0.103353,0.1736331 -0.103353,0.5229659 0,0.3472655 0.103353,0.5126307 0.103353,0.1653644 0.324528,0.1653644 0.179835,0 0.326595,-0.045478 0.146761,-0.047545 0.299724,-0.1198893 V 6.748863 q -0.07648,0.03721 -0.148828,0.06615 -0.07234,0.028941 -0.146762,0.047546 -0.07234,0.018605 -0.152962,0.026873 -0.07855,0.010336 -0.169498,0.010336 z m 3.156397,-0.041344 h -0.63046 V 5.5086296 q 0,-0.2501146 -0.07854,-0.3741375 -0.07648,-0.1260909 -0.237711,-0.1260909 -0.121957,0 -0.204639,0.049613 -0.08268,0.049613 -0.132292,0.1467612 -0.04961,0.097152 -0.07028,0.2397786 -0.02067,0.1426269 -0.02067,0.3265952 V 6.8584214 H 98.696205 V 3.642079 h 0.630452 v 0.6552576 q 0,0.086817 -0.0041,0.1839683 -0.0041,0.095085 -0.01034,0.1756996 -0.0083,0.095084 -0.01447,0.1860355 h 0.03308 q 0.101286,-0.1798339 0.258383,-0.2583825 0.157096,-0.080615 0.355533,-0.080615 0.171567,0 0.310067,0.049613 0.14056,0.047546 0.23978,0.1508948 0.0992,0.1033534 0.15296,0.2645834 0.0537,0.1591636 0.0537,0.3824062 z"
         id="path6" />
      <path
         style="font-weight:normal;font-size:5.32445px;font-family:'Reem Kufi';-inkscape-font-specification:'Reem Kufi';white-space:pre;inline-size:104.55;fill:#ffffff;stroke-width:0.47466"
         d="m 102.34785,5.7535205 h 0.7874 v 0.372533 h -0.7874 z m 1.72719,1.1049001 1.35043,-3.1961682 h 0.0254 l 1.35043,3.1961682 h -0.51223 l -0.98214,-2.5019011 0.3175,-0.2074333 -1.10913,2.7093344 z m 0.81703,-1.1514668 h 1.10067 l 0.1524,0.3809998 h -1.3843 z m 2.25637,1.1514668 q 0.26246,-0.2666998 0.508,-0.5164669 0.24976,-0.2497664 0.4445,-0.4826 0.19473,-0.2370666 0.30903,-0.4614335 0.1143,-0.2243669 0.1143,-0.4318002 0,-0.1735672 -0.072,-0.2836334 -0.072,-0.1142999 -0.1905,-0.1651004 -0.1143,-0.055035 -0.24553,-0.055035 -0.1778,0 -0.28787,0.07197 -0.10583,0.07197 -0.15663,0.1778001 -0.0508,0.1016002 -0.0508,0.1989667 0,0.1397001 0.0423,0.2497671 0.0423,0.1100662 0.12277,0.1904999 l -0.27517,0.2497663 q -0.1016,-0.063503 -0.17357,-0.1820331 -0.072,-0.1227667 -0.11006,-0.2540001 -0.0381,-0.1354664 -0.0381,-0.2413004 0,-0.2328328 0.1143,-0.4317995 0.1143,-0.2032004 0.33866,-0.3302008 0.22437,-0.1269997 0.5461,-0.1269997 0.27094,0 0.4699,0.1269997 0.19897,0.1227667 0.30904,0.3259671 0.1143,0.2032004 0.1143,0.4444999 0,0.2751674 -0.1397,0.5376335 -0.1397,0.2624668 -0.35137,0.516467 -0.21167,0.2540001 -0.4318,0.5080002 l -0.19897,-0.063503 h 1.2065 V 6.858419 Z"
         id="path7" />
    </g>
    <rect
       style="fill:#ffffff;stroke:#292929;stroke-width:1.06902;stroke-dasharray:none;stroke-opacity:1"
       id="rect21517-2-06-0-1-1"
       width="39.204624"
       height="10.306113"
       x="39.517021"
       y="0.53548491"
       ry="1.6501542e-06" />
    <g
       id="g9">
      <path
         style="font-weight:bold;font-size:5.32445px;font-family:'Droid Sans';-inkscape-font-specification:'Droid Sans Bold';white-space:pre;inline-size:104.55;fill:#292929;stroke-width:0.47466"
         d="M 49.87228,6.7882166 H 48.131817 V 3.7661777 h 1.740463 v 0.5250331 h -1.099675 v 0.6635256 h 1.023194 v 0.5250323 h -1.023194 v 0.7792812 h 1.099675 z m 2.585889,0 H 51.827717 V 5.438428 q 0,-0.2501146 -0.07648,-0.3741375 -0.07441,-0.1260909 -0.239779,-0.1260909 -0.124023,0 -0.206705,0.049613 -0.08268,0.049613 -0.132292,0.1467612 -0.04755,0.097152 -0.06821,0.2397786 -0.02067,0.1426269 -0.02067,0.3265952 V 6.7882198 H 50.453129 V 4.4772487 h 0.481624 l 0.08475,0.2955897 h 0.03514 q 0.04961,-0.088884 0.11989,-0.1529628 0.07234,-0.064075 0.157096,-0.1054198 0.08475,-0.041344 0.179834,-0.059949 0.09508,-0.020672 0.194304,-0.020672 0.169499,0 0.307991,0.049613 0.138493,0.047546 0.237712,0.1508949 0.09922,0.1033533 0.152962,0.2645833 0.05374,0.1591636 0.05374,0.3824063 z m 2.561086,-2.3068367 v 0.3431312 l -0.33693,0.1054205 q 0.04134,0.070277 0.05787,0.1467613 0.01654,0.074411 0.01654,0.16123 0,0.1757003 -0.05581,0.3224616 -0.05581,0.144694 -0.165364,0.2480466 -0.109554,0.1033533 -0.274918,0.1612308 -0.165366,0.055806 -0.384474,0.055806 -0.04754,0 -0.103352,-0.00413 -0.05581,-0.0062 -0.08268,-0.012403 -0.04134,0.035142 -0.06615,0.074411 -0.02274,0.03721 -0.02274,0.090951 0,0.043411 0.02687,0.070277 0.02687,0.024806 0.07028,0.041344 0.04341,0.01447 0.101286,0.020672 0.05787,0.00413 0.11989,0.00413 h 0.359668 q 0.167431,0 0.299723,0.039277 0.132291,0.037209 0.223242,0.1157558 0.09302,0.078545 0.142627,0.2005043 0.04961,0.1198893 0.04961,0.2873208 0,0.1963708 -0.07854,0.3534672 -0.07855,0.1591636 -0.235645,0.2687177 -0.155029,0.1116213 -0.38654,0.1694988 -0.23151,0.059949 -0.535368,0.059949 -0.235644,0 -0.411344,-0.045478 -0.1757,-0.043411 -0.293523,-0.128158 -0.117822,-0.082682 -0.177767,-0.2005043 -0.05788,-0.1178222 -0.05788,-0.2666506 0,-0.1260909 0.04341,-0.2191082 0.04341,-0.093017 0.115756,-0.1591636 0.07234,-0.066142 0.163297,-0.107487 0.09302,-0.041344 0.19017,-0.064075 -0.04341,-0.018605 -0.08682,-0.05168 -0.04134,-0.033075 -0.07648,-0.076478 -0.03308,-0.043411 -0.05581,-0.095085 -0.02067,-0.053747 -0.02067,-0.1116213 0,-0.066142 0.01861,-0.1198893 0.02067,-0.053747 0.05787,-0.099219 0.03721,-0.047545 0.09302,-0.088883 0.05582,-0.041344 0.126091,-0.084749 -0.181901,-0.078546 -0.289388,-0.2521818 -0.10542,-0.1736324 -0.10542,-0.4092774 0,-0.1860347 0.05787,-0.332796 0.05787,-0.1467612 0.169499,-0.2480474 0.111621,-0.1033525 0.276985,-0.1570964 0.165365,-0.053747 0.380339,-0.053747 0.04134,0 0.09302,0.0062 0.05167,0.00413 0.101285,0.012403 0.05168,0.0062 0.09508,0.01447 0.04341,0.00827 0.06821,0.01447 z m -1.653646,2.6334319 q 0,0.05168 0.02067,0.099219 0.02274,0.049613 0.07234,0.086817 0.04961,0.037209 0.130225,0.057873 0.08062,0.022739 0.198438,0.022739 0.322461,0 0.485759,-0.09095 0.163297,-0.090951 0.163297,-0.243913 0,-0.1302245 -0.101286,-0.1736332 -0.101286,-0.043411 -0.314193,-0.043411 h -0.291455 q -0.05581,0 -0.11989,0.012403 -0.06407,0.01447 -0.117822,0.047546 -0.05375,0.033075 -0.09095,0.086817 -0.03514,0.055806 -0.03514,0.1384924 z m 0.227376,-1.8810225 q 0,0.1881019 0.07028,0.2914553 0.07028,0.1033525 0.212906,0.1033525 0.148829,0 0.214975,-0.1033525 0.06614,-0.1033534 0.06614,-0.2914553 0,-0.1860356 -0.06614,-0.2955897 -0.06408,-0.1095541 -0.214975,-0.1095541 -0.283186,0 -0.283186,0.4051438 z m 2.48047,1.5544273 H 55.443002 V 3.5718742 h 0.630453 z m 0.634586,-2.9083504 q 0,-0.088884 0.02687,-0.1467612 0.02687,-0.059949 0.07234,-0.095085 0.04754,-0.037209 0.109554,-0.05168 0.06408,-0.01447 0.134359,-0.01447 0.07028,0 0.132291,0.01447 0.06202,0.01447 0.107487,0.05168 0.04755,0.035142 0.07441,0.095085 0.02894,0.057873 0.02894,0.1467612 0,0.086816 -0.02894,0.1467605 -0.02687,0.059949 -0.07441,0.097152 -0.04548,0.035142 -0.107487,0.05168 -0.06202,0.01447 -0.132291,0.01447 -0.07028,0 -0.134359,-0.01447 -0.06202,-0.016538 -0.109554,-0.05168 -0.04548,-0.03721 -0.07234,-0.097152 -0.02687,-0.059949 -0.02687,-0.1467605 z m 0.657325,2.9083504 h -0.630453 v -2.310971 h 0.630453 z m 2.201417,-0.6862631 q 0,0.1819012 -0.06614,0.3183272 -0.06614,0.1364253 -0.188103,0.2273763 -0.121957,0.09095 -0.295589,0.1364252 -0.173633,0.045478 -0.388607,0.045478 -0.113688,0 -0.21084,-0.00827 -0.09715,-0.0062 -0.183969,-0.022739 -0.08682,-0.016538 -0.167431,-0.041344 -0.08062,-0.024806 -0.163297,-0.062016 v -0.520897 q 0.08682,0.043411 0.181901,0.078545 0.09715,0.035142 0.192236,0.062016 0.09509,0.024806 0.183968,0.039277 0.09095,0.01447 0.167432,0.01447 0.08475,0 0.144694,-0.01447 0.05995,-0.016538 0.09715,-0.043411 0.03928,-0.028941 0.05581,-0.06615 0.0186,-0.039277 0.0186,-0.082682 0,-0.043411 -0.01447,-0.076478 -0.0124,-0.035142 -0.05995,-0.072344 -0.04755,-0.039277 -0.140561,-0.086817 Q 58.638667,5.8766372 58.483638,5.8063609 58.332742,5.7381509 58.221121,5.672002 58.111567,5.603793 58.03922,5.5211072 57.96894,5.4384252 57.9338,5.3330045 57.89866,5.2255175 57.89866,5.0787563 q 0,-0.16123 0.06202,-0.2811193 0.06202,-0.1219565 0.175699,-0.2025723 0.113689,-0.080615 0.272852,-0.1198893 0.161231,-0.041344 0.357601,-0.041344 0.206706,0 0.392742,0.047546 0.186034,0.047545 0.382405,0.1426268 L 59.35181,5.0704887 q -0.157097,-0.074411 -0.299723,-0.1219565 -0.142628,-0.047546 -0.285255,-0.047546 -0.128157,0 -0.186035,0.045478 -0.05581,0.045478 -0.05581,0.1240237 0,0.041344 0.01447,0.074411 0.01447,0.031008 0.05787,0.066142 0.04341,0.033075 0.121957,0.074411 0.07855,0.039277 0.204638,0.097152 0.146761,0.064075 0.264584,0.1281581 0.117822,0.062016 0.202572,0.1426268 0.08475,0.080615 0.130224,0.188102 0.04548,0.1074869 0.04548,0.2604497 z m 2.50114,0.6862631 H 61.43747 V 5.438428 q 0,-0.2501146 -0.07854,-0.3741375 -0.07648,-0.1260909 -0.237712,-0.1260909 -0.121956,0 -0.204638,0.049613 -0.08268,0.049613 -0.132292,0.1467612 -0.04961,0.097152 -0.07028,0.2397786 -0.02067,0.1426269 -0.02067,0.3265952 V 6.7882198 H 60.062882 V 3.5718774 h 0.630453 V 4.227135 q 0,0.086817 -0.0041,0.1839683 -0.0041,0.095085 -0.01034,0.1756996 -0.0083,0.095084 -0.01447,0.1860355 h 0.03307 q 0.101286,-0.179834 0.258382,-0.2583826 0.157097,-0.080615 0.355534,-0.080615 0.171566,0 0.310059,0.049613 0.14056,0.047546 0.239779,0.1508948 0.09922,0.1033534 0.152962,0.2645834 0.05375,0.1591636 0.05375,0.3824062 z"
         id="path4" />
      <path
         style="font-weight:normal;font-size:5.32445px;font-family:'Reem Kufi';-inkscape-font-specification:'Reem Kufi';white-space:pre;inline-size:104.55;fill:#292929;stroke-width:0.47466"
         d="m 63.714526,5.6833165 h 0.7874 v 0.372533 h -0.7874 z m 2.853259,-1.9642676 q 0.465667,0 0.732367,0.1904999 0.266701,0.1904998 0.266701,0.5842001 0,0.2497672 -0.114301,0.4318003 -0.1143,0.1778001 -0.321734,0.2794003 -0.203199,0.1016002 -0.478367,0.1143 l -0.0635,-0.2370666 q 0.321733,0.00847 0.575733,0.1142999 0.254,0.1016002 0.402167,0.2878663 0.1524,0.1820339 0.1524,0.436034 0,0.2328337 -0.0889,0.3979333 -0.08467,0.1651004 -0.232833,0.2709336 -0.143934,0.1016002 -0.330201,0.1523999 -0.182033,0.046568 -0.381,0.046568 h -0.9271 V 3.7190497 Z m 0.08043,1.329267 q 0.2413,0 0.351366,-0.1354664 0.110067,-0.1397002 0.110067,-0.3259671 0,-0.2285999 -0.143933,-0.3344331 -0.1397,-0.1058339 -0.376767,-0.1058339 h -0.389467 v 0.9017005 z m 0.01694,1.3292669 q 0.249766,0 0.423333,-0.1100661 0.173566,-0.110067 0.173566,-0.3429006 0,-0.1693334 -0.09313,-0.2666998 -0.09313,-0.097366 -0.237067,-0.1397002 -0.143933,-0.04233 -0.296333,-0.04233 H 66.199486 V 6.377586 Z m 1.523996,0.4106338 q 0.262466,-0.2666998 0.508,-0.5164669 0.249767,-0.2497664 0.4445,-0.4826 0.194733,-0.2370666 0.309034,-0.4614335 0.1143,-0.2243669 0.1143,-0.4318002 0,-0.1735672 -0.07197,-0.2836334 -0.07197,-0.1142999 -0.1905,-0.1651004 -0.1143,-0.055035 -0.245533,-0.055035 -0.177801,0 -0.287868,0.07197 -0.105833,0.07197 -0.156632,0.1778001 -0.0508,0.1016002 -0.0508,0.1989667 0,0.1397001 0.04233,0.2497671 0.04233,0.1100662 0.122767,0.1904999 l -0.275168,0.2497663 q -0.101599,-0.063503 -0.173566,-0.1820331 -0.07197,-0.1227667 -0.110067,-0.2540001 -0.0381,-0.1354664 -0.0381,-0.2413004 0,-0.2328328 0.1143,-0.4317995 0.114301,-0.2032004 0.338667,-0.3302008 0.224367,-0.1269997 0.5461,-0.1269997 0.270934,0 0.4699,0.1269997 0.198968,0.1227667 0.309034,0.3259671 0.1143,0.2032004 0.1143,0.4444999 0,0.2751674 -0.1397,0.5376335 -0.1397,0.2624668 -0.351367,0.516467 -0.211666,0.2540001 -0.4318,0.5080002 l -0.198967,-0.063503 h 1.2065 V 6.788215 Z"
         id="path5" />
    </g>
  </g>
</svg>
