<?xml version="1.0" encoding="UTF-8" standalone="no"?>
<!-- Created with Inkscape (http://www.inkscape.org/) -->

<svg
   width="490"
   height="35"
   viewBox="0 0 129.64582 9.2604168"
   version="1.1"
   id="svg7864"
   inkscape:version="1.2.2 (1:1.2.2+202212051550+b0a8486541)"
   sodipodi:docname="languages.svg"
   xmlns:inkscape="http://www.inkscape.org/namespaces/inkscape"
   xmlns:sodipodi="http://sodipodi.sourceforge.net/DTD/sodipodi-0.dtd"
   xmlns="http://www.w3.org/2000/svg"
   xmlns:svg="http://www.w3.org/2000/svg">
  <sodipodi:namedview
     id="namedview7866"
     pagecolor="#ffffff"
     bordercolor="#000000"
     borderopacity="0.25"
     inkscape:showpageshadow="2"
     inkscape:pageopacity="0.0"
     inkscape:pagecheckerboard="0"
     inkscape:deskcolor="#d1d1d1"
     inkscape:document-units="mm"
     showgrid="false"
     inkscape:zoom="2.035928"
     inkscape:cx="210.71472"
     inkscape:cy="12.279413"
     inkscape:window-width="1920"
     inkscape:window-height="949"
     inkscape:window-x="1920"
     inkscape:window-y="27"
     inkscape:window-maximized="1"
     inkscape:current-layer="layer1" />
  <defs
     id="defs7861" />
  <g
     inkscape:label="Capa 1"
     inkscape:groupmode="layer"
     id="layer1">
    <rect
       style="fill:#292929;fill-opacity:1;stroke:none;stroke-width:0.832194;stroke-dasharray:none;stroke-opacity:1"
       id="rect21517-1-36-4"
       width="21.745777"
       height="8.8060675"
       x="0.30578768"
       y="0.22685169"
       ry="1.4099753e-06" />
    <g
       aria-label="Spanish"
       transform="matrix(0.79507463,0,0,0.79507463,-29.981591,-22.44173)"
       id="text32181-7-3-3-1-3-3-0-1-8"
       style="font-size:5.64444px;font-family:'Reem Kufi';-inkscape-font-specification:'Reem Kufi';white-space:pre;inline-size:104.55;display:inline;fill:#ffffff;stroke-width:0.597001">
      <path
         d="m 44.515972,32.355824 q -0.214489,-0.112889 -0.462844,-0.191911 -0.248356,-0.07902 -0.479778,-0.07902 -0.321733,0 -0.507999,0.146756 -0.186267,0.141111 -0.186267,0.39511 0,0.174978 0.124178,0.3048 0.124178,0.129822 0.321733,0.225778 0.197555,0.09595 0.417689,0.180622 0.253999,0.09031 0.491066,0.231422 0.237066,0.135466 0.389466,0.366889 0.1524,0.231422 0.1524,0.620888 0,0.321733 -0.163689,0.587022 -0.163688,0.265288 -0.468488,0.423333 -0.299155,0.1524 -0.722488,0.1524 -0.395111,0 -0.750711,-0.124178 -0.349955,-0.129822 -0.603955,-0.3048 l 0.265289,-0.468488 q 0.197555,0.1524 0.485421,0.265288 0.287867,0.112889 0.547511,0.112889 0.191911,0 0.372533,-0.06209 0.180622,-0.06773 0.299155,-0.208844 0.124178,-0.141111 0.124178,-0.372533 0,-0.191911 -0.107244,-0.327378 -0.107245,-0.135466 -0.282222,-0.231422 -0.169333,-0.09596 -0.366889,-0.169333 -0.191911,-0.07338 -0.395111,-0.158044 -0.197555,-0.09031 -0.366888,-0.220133 -0.163689,-0.129822 -0.270933,-0.316089 -0.1016,-0.191911 -0.1016,-0.462844 0,-0.333022 0.1524,-0.575733 0.158044,-0.242711 0.434621,-0.383822 0.276578,-0.141111 0.632178,-0.1524 0.406399,0 0.711199,0.1016 0.3048,0.09596 0.536222,0.237067 z"
         id="path5049" />
      <path
         d="m 46.948719,35.731199 q -0.259644,0 -0.502355,-0.112888 -0.237067,-0.118534 -0.372533,-0.321733 l 0.03387,-0.174978 v 1.687688 h -0.570088 v -3.53342 h 0.491066 l 0.07902,0.581377 -0.05644,-0.163688 q 0.169333,-0.208845 0.423333,-0.338667 0.259644,-0.135466 0.581377,-0.135466 0.333022,0 0.598311,0.158044 0.265289,0.158044 0.417689,0.445911 0.152399,0.282222 0.152399,0.666044 0,0.383822 -0.169333,0.666044 -0.163689,0.276577 -0.451555,0.428977 -0.287866,0.146755 -0.654755,0.146755 z M 46.83583,35.279644 q 0.220133,0 0.400755,-0.1016 0.186267,-0.1016 0.293511,-0.276577 0.112889,-0.180622 0.112889,-0.4064 0,-0.231422 -0.1016,-0.412044 -0.1016,-0.180622 -0.276577,-0.282222 -0.174978,-0.1016 -0.389467,-0.1016 -0.293511,0 -0.49671,0.158044 -0.197556,0.158045 -0.270934,0.417689 v 0.423333 q 0.04516,0.254 0.248356,0.417689 0.2032,0.163688 0.479777,0.163688 z"
         id="path5051" />
      <path
         d="m 49.900759,35.731199 q -0.333022,0 -0.603955,-0.141111 -0.270933,-0.141111 -0.428978,-0.412044 -0.158044,-0.276577 -0.158044,-0.682977 0,-0.395111 0.163689,-0.677333 0.169333,-0.287866 0.440266,-0.440266 0.276578,-0.158044 0.598311,-0.158044 0.338666,0 0.558799,0.141111 0.220133,0.141111 0.338667,0.338666 l -0.03387,0.09031 0.05644,-0.474133 h 0.524933 v 2.359376 h -0.570088 v -0.598311 l 0.05644,0.141111 q -0.02258,0.04516 -0.09596,0.129823 -0.07338,0.08467 -0.191911,0.174977 -0.118533,0.08467 -0.287867,0.146756 -0.163688,0.06209 -0.366888,0.06209 z m 0.1524,-0.468488 q 0.282222,0 0.474133,-0.146755 0.197555,-0.1524 0.259644,-0.412045 V 34.21849 q -0.06773,-0.231423 -0.276578,-0.383822 -0.203199,-0.1524 -0.474133,-0.1524 -0.203199,0 -0.372533,0.1016 -0.169333,0.09596 -0.270933,0.276577 -0.1016,0.174978 -0.1016,0.4064 0,0.225778 0.1016,0.4064 0.107245,0.180622 0.282222,0.287866 0.174978,0.1016 0.378178,0.1016 z"
         id="path5053" />
      <path
         d="m 52.762488,33.315379 0.0508,0.547511 -0.02258,-0.07902 q 0.112889,-0.254 0.361244,-0.4064 0.254,-0.1524 0.592666,-0.1524 0.333022,0 0.547511,0.197555 0.214489,0.191911 0.220133,0.508 v 1.744132 h -0.570088 v -1.546577 q -0.0056,-0.180622 -0.107245,-0.29351 -0.1016,-0.118534 -0.316088,-0.124178 -0.299156,0 -0.502356,0.248355 -0.197555,0.248356 -0.197555,0.637822 v 1.078088 h -0.570088 v -2.359376 z"
         id="path5055" />
      <path
         d="m 55.409727,33.315379 h 0.570089 v 2.359376 h -0.570089 z m -0.02822,-0.846666 q 0,-0.129822 0.1016,-0.220133 0.107245,-0.09031 0.231422,-0.09031 0.124178,0 0.225778,0.09031 0.1016,0.09031 0.1016,0.220133 0,0.141111 -0.1016,0.225778 -0.1016,0.08467 -0.225778,0.08467 -0.124177,0 -0.231422,-0.08467 -0.1016,-0.08467 -0.1016,-0.225778 z"
         id="path5057" />
      <path
         d="m 57.554608,35.725555 q -0.259644,0 -0.49671,-0.09031 -0.237067,-0.09596 -0.400756,-0.270933 l 0.242711,-0.327378 q 0.146756,0.141111 0.3048,0.214489 0.163689,0.07338 0.3048,0.07338 0.163688,0 0.287866,-0.06209 0.124178,-0.06773 0.124178,-0.220133 0,-0.124178 -0.08467,-0.191911 -0.07902,-0.06773 -0.2032,-0.112889 -0.124177,-0.04516 -0.265288,-0.08467 -0.293511,-0.09596 -0.451555,-0.270933 -0.1524,-0.180622 -0.1524,-0.423333 0,-0.186266 0.09031,-0.349955 0.09596,-0.169333 0.287866,-0.270933 0.191911,-0.107244 0.474133,-0.107244 0.248355,0 0.445911,0.06209 0.197555,0.05645 0.366888,0.197556 l -0.220133,0.344311 q -0.1016,-0.1016 -0.242711,-0.1524 -0.135466,-0.05645 -0.248355,-0.06209 -0.1524,0 -0.265289,0.07338 -0.112888,0.06773 -0.112888,0.186266 0,0.118533 0.07902,0.191911 0.07902,0.06773 0.2032,0.112889 0.129822,0.03951 0.259644,0.08467 0.259644,0.08467 0.428977,0.231423 0.174978,0.146755 0.174978,0.428977 0,0.214489 -0.1016,0.395111 -0.1016,0.180622 -0.310444,0.293511 -0.2032,0.107244 -0.519289,0.107244 z"
         id="path5059" />
      <path
         d="m 59.208427,35.674755 v -4.38573 h 0.558799 v 2.562576 l -0.01129,-0.09596 q 0.124178,-0.231422 0.366889,-0.378177 0.242711,-0.1524 0.581377,-0.1524 0.333022,0 0.547511,0.197555 0.214489,0.191911 0.220133,0.508 v 1.744132 h -0.570088 v -1.546577 q -0.0056,-0.180622 -0.107245,-0.29351 -0.101599,-0.118534 -0.316088,-0.124178 -0.299155,0 -0.502355,0.254 -0.197556,0.248355 -0.197556,0.632177 v 1.078088 z"
         id="path5061" />
    </g>
    <rect
       style="fill:#ffffff;stroke:#292929;stroke-width:0.698477;stroke-dasharray:none;stroke-opacity:1"
       id="rect21517-2-06-0-1-1"
       width="21.279036"
       height="8.1063023"
       x="22.078585"
       y="0.57673573"
       ry="1.2979334e-06" />
    <g
       aria-label="Native"
       transform="matrix(0.79541601,0,0,0.77435153,-7.579854,-21.41489)"
       id="text32181-7-3-3-1-3-3-0-2-4-2"
       style="font-size:5.64444px;font-family:Chilanka;-inkscape-font-specification:Chilanka;white-space:pre;inline-size:104.55;display:inline;fill:#292929;stroke-width:0.597001">
      <path
         d="m 45.94966,35.815866 -3.155242,-3.149598 0.174977,0.05644 0.01129,2.952042 h -0.592666 v -4.222041 h 0.02258 l 3.115731,3.149597 -0.135467,-0.03387 -0.01129,-2.985909 h 0.587022 v 4.23333 z"
         style="font-family:'Reem Kufi';-inkscape-font-specification:'Reem Kufi'"
         id="path4940" />
      <path
         d="m 47.981648,35.731199 q -0.333022,0 -0.603955,-0.141111 -0.270933,-0.141111 -0.428977,-0.412044 -0.158045,-0.276577 -0.158045,-0.682977 0,-0.395111 0.163689,-0.677333 0.169333,-0.287866 0.440266,-0.440266 0.276578,-0.158044 0.598311,-0.158044 0.338666,0 0.5588,0.141111 0.220133,0.141111 0.338666,0.338666 l -0.03387,0.09031 0.05645,-0.474133 h 0.524933 v 2.359376 h -0.570089 v -0.598311 l 0.05644,0.141111 q -0.02258,0.04516 -0.09596,0.129823 -0.07338,0.08467 -0.191911,0.174977 -0.118533,0.08467 -0.287866,0.146756 -0.163689,0.06209 -0.366889,0.06209 z m 0.1524,-0.468488 q 0.282222,0 0.474133,-0.146755 0.197555,-0.1524 0.259644,-0.412045 V 34.21849 q -0.06773,-0.231423 -0.276577,-0.383822 -0.2032,-0.1524 -0.474133,-0.1524 -0.2032,0 -0.372533,0.1016 -0.169334,0.09596 -0.270934,0.276577 -0.101599,0.174978 -0.101599,0.4064 0,0.225778 0.101599,0.4064 0.107245,0.180622 0.282222,0.287866 0.174978,0.1016 0.378178,0.1016 z"
         style="font-family:'Reem Kufi';-inkscape-font-specification:'Reem Kufi'"
         id="path4942" />
      <path
         d="m 50.555511,32.282447 h 0.575733 v 1.038577 h 0.632177 v 0.44591 h -0.632177 v 1.907821 h -0.575733 v -1.907821 h -0.417689 v -0.44591 h 0.417689 z"
         style="font-family:'Reem Kufi';-inkscape-font-specification:'Reem Kufi'"
         id="path4944" />
      <path
         d="m 52.389952,33.315379 h 0.570088 v 2.359376 h -0.570088 z m -0.02822,-0.846666 q 0,-0.129822 0.1016,-0.220133 0.107244,-0.09031 0.231422,-0.09031 0.124177,0 0.225777,0.09031 0.1016,0.09031 0.1016,0.220133 0,0.141111 -0.1016,0.225778 -0.1016,0.08467 -0.225777,0.08467 -0.124178,0 -0.231422,-0.08467 -0.1016,-0.08467 -0.1016,-0.225778 z"
         style="font-family:'Reem Kufi';-inkscape-font-specification:'Reem Kufi'"
         id="path4946" />
      <path
         d="m 54.833988,35.742488 -1.326443,-2.427109 h 0.671688 l 0.874888,1.834443 -0.349955,-0.01693 0.795866,-1.81751 h 0.632177 l -1.269999,2.427109 z"
         style="font-family:'Reem Kufi';-inkscape-font-specification:'Reem Kufi'"
         id="path4948" />
      <path
         d="m 57.718278,35.731199 q -0.4064,0 -0.699911,-0.158044 -0.293511,-0.163689 -0.451555,-0.445911 -0.158044,-0.287866 -0.158044,-0.64911 0,-0.349956 0.174977,-0.632178 0.180622,-0.287866 0.479778,-0.457199 0.299155,-0.169333 0.666044,-0.169333 0.474133,0 0.784577,0.276577 0.316088,0.270933 0.423333,0.767644 l -1.924754,0.666044 -0.135467,-0.327378 1.546577,-0.564444 -0.118534,0.07902 q -0.06773,-0.180622 -0.214488,-0.310445 -0.146756,-0.135466 -0.400756,-0.135466 -0.316088,0 -0.519288,0.220133 -0.197555,0.214489 -0.197555,0.553155 0,0.361244 0.214488,0.581377 0.214489,0.220134 0.541867,0.220134 0.152399,0 0.29351,-0.0508 0.141111,-0.05644 0.265289,-0.146756 l 0.259644,0.423333 q -0.180622,0.118533 -0.400755,0.191911 -0.214489,0.06773 -0.428977,0.06773 z"
         style="font-family:'Reem Kufi';-inkscape-font-specification:'Reem Kufi'"
         id="path4950" />
    </g>
    <rect
       style="fill:#292929;fill-opacity:1;stroke:none;stroke-width:0.832194;stroke-dasharray:none;stroke-opacity:1"
       id="rect21517-1-36-4-3"
       width="21.745777"
       height="8.8060675"
       x="43.237999"
       y="0.22749256"
       ry="1.4099753e-06" />
    <g
       aria-label="English"
       transform="matrix(0.79507463,0,0,0.79507463,13.390434,-22.4568)"
       id="text32181-7-3-3-1-3-3-0-1-8-6"
       style="font-size:5.64444px;font-family:'Reem Kufi';-inkscape-font-specification:'Reem Kufi';white-space:pre;inline-size:104.55;display:inline;fill:#ffffff;stroke-width:0.597001">
      <path
         d="m 42.388018,31.582536 h 2.681109 v 0.570088 H 42.97504 v 1.179688 h 1.868309 v 0.570089 H 42.97504 v 1.202266 h 2.173109 v 0.570088 h -2.760131 z"
         id="path5064" />
      <path
         d="m 46.463297,33.315379 0.0508,0.547511 -0.02258,-0.07902 q 0.112889,-0.254 0.361244,-0.4064 0.254,-0.1524 0.592666,-0.1524 0.333022,0 0.547511,0.197555 0.214489,0.191911 0.220133,0.508 v 1.744132 h -0.570088 v -1.546577 q -0.0056,-0.180622 -0.107245,-0.29351 -0.101599,-0.118534 -0.316088,-0.124178 -0.299156,0 -0.502355,0.248355 -0.197556,0.248356 -0.197556,0.637822 v 1.078088 h -0.570088 v -2.359376 z"
         id="path5066" />
      <path
         d="m 50.262002,36.848799 q -0.270933,0 -0.474133,-0.06773 -0.2032,-0.06209 -0.366889,-0.169333 -0.158044,-0.107244 -0.3048,-0.237066 l 0.338667,-0.389467 q 0.174977,0.169334 0.361244,0.265289 0.191911,0.09596 0.434622,0.09596 0.383822,0 0.592666,-0.180622 0.208844,-0.180622 0.214489,-0.485421 v -0.615244 l 0.03951,0.107244 q -0.1016,0.237066 -0.361244,0.400755 -0.254,0.158044 -0.632178,0.158044 -0.327377,0 -0.59831,-0.163688 -0.270933,-0.163689 -0.434622,-0.445911 -0.163689,-0.282222 -0.163689,-0.637822 0,-0.366888 0.169333,-0.64911 0.174978,-0.287867 0.4572,-0.451556 0.282222,-0.163688 0.603955,-0.163688 0.316089,0 0.564444,0.118533 0.254,0.118533 0.372533,0.3048 l -0.02822,0.09595 0.05644,-0.423333 h 0.524933 v 2.376309 q 0,0.321734 -0.169333,0.581378 -0.169333,0.265288 -0.474133,0.417688 -0.3048,0.158045 -0.722488,0.158045 z m -0.778933,-2.381954 q 0,0.225778 0.1016,0.4064 0.107244,0.180622 0.282222,0.287866 0.180622,0.1016 0.400755,0.1016 0.299156,0 0.508,-0.1524 0.208844,-0.158044 0.282222,-0.400755 v -0.485422 q -0.07338,-0.242711 -0.287867,-0.389466 -0.214488,-0.1524 -0.502355,-0.1524 -0.220133,0 -0.400755,0.1016 -0.174978,0.1016 -0.282222,0.276577 -0.1016,0.174978 -0.1016,0.4064 z"
         id="path5068" />
      <path
         d="m 52.519768,31.289025 h 0.570089 v 4.38573 h -0.570089 z"
         id="path5070" />
      <path
         d="m 53.981672,33.315379 h 0.570088 v 2.359376 h -0.570088 z m -0.02822,-0.846666 q 0,-0.129822 0.1016,-0.220133 0.107245,-0.09031 0.231422,-0.09031 0.124178,0 0.225778,0.09031 0.1016,0.09031 0.1016,0.220133 0,0.141111 -0.1016,0.225778 -0.1016,0.08467 -0.225778,0.08467 -0.124177,0 -0.231422,-0.08467 -0.1016,-0.08467 -0.1016,-0.225778 z"
         id="path5072" />
      <path
         d="m 56.126552,35.725555 q -0.259644,0 -0.49671,-0.09031 -0.237067,-0.09596 -0.400756,-0.270933 l 0.242711,-0.327378 q 0.146756,0.141111 0.3048,0.214489 0.163689,0.07338 0.3048,0.07338 0.163689,0 0.287866,-0.06209 0.124178,-0.06773 0.124178,-0.220133 0,-0.124178 -0.08467,-0.191911 -0.07902,-0.06773 -0.203199,-0.112889 -0.124178,-0.04516 -0.265289,-0.08467 -0.293511,-0.09596 -0.451555,-0.270933 -0.1524,-0.180622 -0.1524,-0.423333 0,-0.186266 0.09031,-0.349955 0.09595,-0.169333 0.287866,-0.270933 0.191911,-0.107244 0.474133,-0.107244 0.248356,0 0.445911,0.06209 0.197556,0.05645 0.366889,0.197556 l -0.220133,0.344311 q -0.1016,-0.1016 -0.242711,-0.1524 -0.135467,-0.05645 -0.248356,-0.06209 -0.1524,0 -0.265288,0.07338 -0.112889,0.06773 -0.112889,0.186266 0,0.118533 0.07902,0.191911 0.07902,0.06773 0.2032,0.112889 0.129822,0.03951 0.259644,0.08467 0.259644,0.08467 0.428977,0.231423 0.174978,0.146755 0.174978,0.428977 0,0.214489 -0.1016,0.395111 -0.1016,0.180622 -0.310444,0.293511 -0.2032,0.107244 -0.519289,0.107244 z"
         id="path5074" />
      <path
         d="m 57.780371,35.674755 v -4.38573 h 0.5588 v 2.562576 l -0.01129,-0.09596 q 0.124177,-0.231422 0.366888,-0.378177 0.242711,-0.1524 0.581378,-0.1524 0.333022,0 0.54751,0.197555 0.214489,0.191911 0.220134,0.508 v 1.744132 h -0.570089 v -1.546577 q -0.0056,-0.180622 -0.107244,-0.29351 -0.1016,-0.118534 -0.316089,-0.124178 -0.299155,0 -0.502355,0.254 -0.197556,0.248355 -0.197556,0.632177 v 1.078088 z"
         id="path5076" />
    </g>
    <path
       id="rect21517-2-06-0-1-1-8"
       style="fill:#ffffff;stroke:#292929;stroke-width:0.698477"
       d="m 65.010805,0.57734609 h 21.279032 c 10e-7,0 2e-6,5.8e-7 2e-6,1.29e-6 V 8.683647 c 0,8e-7 -10e-7,1.3e-6 -2e-6,1.3e-6 H 65.010805 c -1e-6,0 -2e-6,-5e-7 -2e-6,-1.3e-6 V 0.57734738 c 0,-7.1e-7 10e-7,-1.29e-6 2e-6,-1.29e-6 z" />
    <g
       aria-label="B1"
       transform="matrix(0.79541601,0,0,0.77435153,39.628774,-21.40988)"
       id="text32181-7-3-3-1-3-3-0-2-4-2-0"
       style="font-size:5.64444px;font-family:'Droid Sans';-inkscape-font-specification:'Droid Sans';white-space:pre;inline-size:104.55;display:inline;fill:#292929;stroke-width:0.597001">
      <path
         d="m 43.466106,31.582536 q 0.620888,0 0.976488,0.254 0.3556,0.254 0.3556,0.778933 0,0.333021 -0.1524,0.575732 -0.1524,0.237067 -0.428977,0.372533 -0.270934,0.135467 -0.637822,0.1524 l -0.08467,-0.316088 q 0.428978,0.01129 0.767644,0.1524 0.338667,0.135466 0.536222,0.383822 0.2032,0.24271 0.2032,0.581377 0,0.310444 -0.118533,0.530577 -0.112889,0.220133 -0.310445,0.361244 -0.191911,0.135467 -0.440266,0.2032 -0.242711,0.06209 -0.508,0.06209 h -1.236132 v -4.092219 z m 0.107244,1.772354 q 0.321733,0 0.468489,-0.180622 0.146755,-0.186266 0.146755,-0.434622 0,-0.3048 -0.191911,-0.445911 -0.186266,-0.141111 -0.502355,-0.141111 H 42.97504 v 1.202266 z m 0.02258,1.772354 q 0.333022,0 0.564444,-0.146755 0.231422,-0.146755 0.231422,-0.4572 0,-0.225777 -0.124177,-0.355599 -0.124178,-0.129823 -0.316089,-0.186267 -0.191911,-0.05644 -0.395111,-0.05644 H 42.97504 v 1.202265 z"
         style="font-family:'Reem Kufi';-inkscape-font-specification:'Reem Kufi'"
         id="path5080" />
      <path
         d="m 45.622278,31.955069 h 0.993421 v 3.719686 h -0.592666 v -3.149598 h -0.400755 z"
         style="font-family:'Reem Kufi';-inkscape-font-specification:'Reem Kufi'"
         id="path5082" />
    </g>
    <rect
       style="fill:#292929;fill-opacity:1;stroke:none;stroke-width:0.832194;stroke-dasharray:none;stroke-opacity:1"
       id="rect21517-1-36-4-3-0"
       width="21.745777"
       height="8.8060675"
       x="85.938972"
       y="0.22747442"
       ry="1.4099753e-06" />
    <g
       aria-label="French"
       transform="matrix(0.79507463,0,0,0.79507463,56.697249,-22.01253)"
       id="text32181-7-3-3-1-3-3-0-1-8-6-5"
       style="font-size:5.64444px;font-family:'Reem Kufi';-inkscape-font-specification:'Reem Kufi';white-space:pre;inline-size:104.55;display:inline;fill:#ffffff;stroke-width:0.597001">
      <path
         d="m 42.388018,31.582536 h 2.449687 v 0.570088 H 42.97504 v 1.241777 h 1.625599 v 0.564444 H 42.97504 v 1.71591 h -0.587022 z"
         id="path5091" />
      <path
         d="m 45.994804,33.315379 0.05644,0.677333 -0.02258,-0.09031 q 0.09595,-0.214489 0.265289,-0.366889 0.174977,-0.1524 0.361244,-0.231422 0.191911,-0.08467 0.321733,-0.08467 l -0.02822,0.564444 q -0.265289,-0.01693 -0.468489,0.1016 -0.197555,0.118533 -0.310444,0.316088 -0.112889,0.197556 -0.112889,0.423333 v 1.049866 h -0.570088 v -2.359376 z"
         id="path5093" />
      <path
         d="m 48.64203,35.731199 q -0.4064,0 -0.699911,-0.158044 -0.29351,-0.163689 -0.451555,-0.445911 -0.158044,-0.287866 -0.158044,-0.64911 0,-0.349956 0.174978,-0.632178 0.180622,-0.287866 0.479777,-0.457199 0.299155,-0.169333 0.666044,-0.169333 0.474133,0 0.784577,0.276577 0.316089,0.270933 0.423333,0.767644 l -1.924754,0.666044 -0.135467,-0.327378 1.546577,-0.564444 -0.118533,0.07902 q -0.06773,-0.180622 -0.214489,-0.310445 -0.146755,-0.135466 -0.400755,-0.135466 -0.316089,0 -0.519289,0.220133 -0.197555,0.214489 -0.197555,0.553155 0,0.361244 0.214489,0.581377 0.214488,0.220134 0.541866,0.220134 0.1524,0 0.293511,-0.0508 0.141111,-0.05644 0.265288,-0.146756 l 0.259645,0.423333 q -0.180622,0.118533 -0.400756,0.191911 -0.214488,0.06773 -0.428977,0.06773 z"
         id="path5095" />
      <path
         d="m 51.012693,33.315379 0.0508,0.547511 -0.02258,-0.07902 q 0.112889,-0.254 0.361244,-0.4064 0.254,-0.1524 0.592666,-0.1524 0.333022,0 0.547511,0.197555 0.214489,0.191911 0.220133,0.508 v 1.744132 h -0.570088 v -1.546577 q -0.0056,-0.180622 -0.107245,-0.29351 -0.1016,-0.118534 -0.316088,-0.124178 -0.299156,0 -0.502356,0.248355 -0.197555,0.248356 -0.197555,0.637822 v 1.078088 h -0.570088 v -2.359376 z"
         id="path5097" />
      <path
         d="m 55.590331,35.454622 q -0.158044,0.129822 -0.383822,0.2032 -0.220133,0.07338 -0.445911,0.07338 -0.383822,0 -0.682977,-0.152399 -0.293511,-0.1524 -0.4572,-0.428978 -0.163688,-0.276577 -0.163688,-0.654755 0,-0.383822 0.174977,-0.660399 0.174978,-0.276578 0.4572,-0.423333 0.287866,-0.1524 0.615244,-0.1524 0.293511,0 0.513644,0.07902 0.225778,0.07902 0.389466,0.220133 l -0.282222,0.366889 q -0.09596,-0.07902 -0.242711,-0.141111 -0.146755,-0.06209 -0.327377,-0.06209 -0.2032,0 -0.372533,0.1016 -0.163689,0.1016 -0.259644,0.276577 -0.09596,0.174978 -0.09596,0.395111 0,0.214489 0.09596,0.389466 0.101599,0.174978 0.276577,0.276578 0.180622,0.1016 0.4064,0.1016 0.146755,0 0.270933,-0.04516 0.129822,-0.04515 0.225778,-0.118533 z"
         id="path5099" />
      <path
         d="m 56.256369,35.674755 v -4.38573 h 0.5588 v 2.562576 l -0.01129,-0.09596 q 0.124177,-0.231422 0.366888,-0.378177 0.242711,-0.1524 0.581378,-0.1524 0.333022,0 0.54751,0.197555 0.214489,0.191911 0.220133,0.508 v 1.744132 h -0.570088 v -1.546577 q -0.0056,-0.180622 -0.107244,-0.29351 -0.1016,-0.118534 -0.316089,-0.124178 -0.299155,0 -0.502355,0.254 -0.197556,0.248355 -0.197556,0.632177 v 1.078088 z"
         id="path5101" />
    </g>
    <rect
       style="fill:#ffffff;stroke:#292929;stroke-width:0.698477;stroke-dasharray:none;stroke-opacity:1"
       id="rect21517-2-06-0-1-1-8-1"
       width="21.279036"
       height="8.1063023"
       x="107.71177"
       y="0.57735842"
       ry="1.2979334e-06" />
    <g
       aria-label="A2"
       transform="matrix(0.79541601,0,0,0.77435153,82.329742,-21.40989)"
       id="text32181-7-3-3-1-3-3-0-2-4-2-0-1"
       style="font-size:5.64444px;font-family:'Reem Kufi';-inkscape-font-specification:'Reem Kufi';white-space:pre;inline-size:104.55;display:inline;fill:#292929;stroke-width:0.597001">
      <path
         d="m 41.964685,35.674755 1.800576,-4.261552 h 0.03387 l 1.800576,4.261552 h -0.682977 l -1.30951,-3.335864 0.423333,-0.276578 -1.478843,3.612442 z m 1.089377,-1.535288 h 1.467554 l 0.2032,0.508 h -1.845732 z"
         id="path5104" />
      <path
         d="m 46.062542,35.674755 q 0.349955,-0.3556 0.677333,-0.688622 0.333022,-0.333022 0.592666,-0.643466 0.259644,-0.316088 0.412044,-0.615244 0.1524,-0.299155 0.1524,-0.575733 0,-0.231422 -0.09596,-0.378177 -0.09596,-0.1524 -0.254,-0.220133 -0.1524,-0.07338 -0.327378,-0.07338 -0.237066,0 -0.383822,0.09596 -0.141111,0.09596 -0.208844,0.237067 -0.06773,0.135466 -0.06773,0.265289 0,0.186266 0.05644,0.333022 0.05645,0.146755 0.163689,0.253999 l -0.366889,0.333022 q -0.135466,-0.08467 -0.231422,-0.242711 -0.09595,-0.163688 -0.146755,-0.338666 -0.0508,-0.180622 -0.0508,-0.321733 0,-0.310444 0.1524,-0.575733 0.1524,-0.270933 0.451555,-0.440266 0.299155,-0.169333 0.728133,-0.169333 0.361244,0 0.626533,0.169333 0.265288,0.163688 0.412044,0.434622 0.1524,0.270933 0.1524,0.592666 0,0.366888 -0.186267,0.716844 -0.186266,0.349955 -0.468488,0.688621 -0.282222,0.338667 -0.575733,0.677333 l -0.265289,-0.08467 h 1.608666 v 0.570088 z"
         id="path5106" />
    </g>
  </g>
</svg>
