<svg width="55" height="52" version="1.1" viewBox="0 0 14.552 13.758" xmlns="http://www.w3.org/2000/svg">
<g>
<rect x=".46405" y=".44578" width="13.624" height="12.867" ry="1.7714" fill="#fbffff" stroke="#292929" stroke-width=".65231"/>
<g transform="matrix(.019345 0 0 .019345 1.9728 1.5759)" fill="#292929">
<path d="m276.04 244.22c-24.575 0-38.741 24.087-38.741 53.862-0.241 30.228 14.407 53.382 38.5 53.382 24.323 0 38.512-22.92 38.512-54.091-1e-3 -29.066-13.71-53.153-38.271-53.153z"/>
<path d="m486.2 196.12h-13.164v-63.526c0-0.399-0.064-0.795-0.116-1.2-0.021-2.52-0.824-4.997-2.551-6.96l-105.71-120.75c-0.031-0.031-0.064-0.044-0.085-0.075-0.629-0.704-1.364-1.29-2.141-1.796-0.231-0.154-0.462-0.283-0.704-0.419-0.672-0.365-1.386-0.672-2.121-0.893-0.199-0.052-0.377-0.134-0.576-0.186-0.8-0.19-1.629-0.308-2.467-0.308h-259.8c-11.864 0-21.501 9.649-21.501 21.502v174.61h-13.163c-16.967 0-30.733 13.756-30.733 30.733v159.81c0 16.961 13.766 30.731 30.733 30.731h13.163v109.4c0 11.854 9.637 21.501 21.501 21.501h354.78c11.853 0 21.502-9.647 21.502-21.501v-109.4h13.164c16.977 0 30.729-13.771 30.729-30.731v-159.81c1e-3 -16.977-13.752-30.733-30.729-30.733zm-389.44-174.61h249.05v110.01c0 5.943 4.818 10.751 10.751 10.751h94.973v53.861h-354.78zm256.28 355.46-10.394 27.884c-22.666-6.619-41.565-13.479-62.828-22.445-3.527-1.418-7.317-2.132-11.094-2.362-35.909-2.352-69.449-28.819-69.449-80.778 0-47.711 30.236-83.623 77.71-83.623 48.675 0 75.351 36.854 75.351 80.317 0 36.142-16.766 61.638-37.785 71.091v0.945c12.284 3.539 25.975 6.378 38.489 8.971zm-280.12-6.844 7.328-29.764c9.69 4.96 24.554 9.915 39.917 9.915 16.525 0 25.271-6.84 25.271-17.228 0-9.928-7.56-15.597-26.691-22.442-26.457-9.217-43.696-23.858-43.696-47.014 0-27.163 22.68-47.948 60.231-47.948 17.954 0 31.184 3.791 40.623 8.03l-8.021 29.061c-6.375-3.076-17.711-7.564-33.3-7.564-15.599 0-23.163 7.079-23.163 15.357 0 10.15 8.977 14.646 29.533 22.447 28.108 10.394 41.332 25.023 41.332 47.464 0 26.699-20.557 49.365-64.253 49.365-18.179-0.01-36.124-4.735-45.111-9.679zm378.62 150.85h-354.78v-103.57h354.78zm23.853-143.53h-99.455v-159.2h36.158v128.97h63.297z"/>
</g>
</g>
</svg>