<?xml version="1.0" encoding="UTF-8" standalone="no"?>
<!-- Created with Inkscape (http://www.inkscape.org/) -->

<svg
   width="55"
   height="52"
   viewBox="0 0 14.552084 13.758334"
   version="1.1"
   id="svg9867"
   inkscape:export-filename="../../../../j-alarcon/img/icons/mongodb.png"
   inkscape:export-xdpi="96"
   inkscape:export-ydpi="96"
   inkscape:version="1.2.2 (1:1.2.2+202212051550+b0a8486541)"
   sodipodi:docname="sql.svg"
   xmlns:inkscape="http://www.inkscape.org/namespaces/inkscape"
   xmlns:sodipodi="http://sodipodi.sourceforge.net/DTD/sodipodi-0.dtd"
   xmlns="http://www.w3.org/2000/svg"
   xmlns:svg="http://www.w3.org/2000/svg">
  <sodipodi:namedview
     id="namedview9869"
     pagecolor="#ffffff"
     bordercolor="#000000"
     borderopacity="0.25"
     inkscape:showpageshadow="2"
     inkscape:pageopacity="0.0"
     inkscape:pagecheckerboard="0"
     inkscape:deskcolor="#d1d1d1"
     inkscape:document-units="mm"
     showgrid="false"
     inkscape:zoom="11.516947"
     inkscape:cx="22.011042"
     inkscape:cy="24.051513"
     inkscape:window-width="1920"
     inkscape:window-height="949"
     inkscape:window-x="1920"
     inkscape:window-y="27"
     inkscape:window-maximized="1"
     inkscape:current-layer="layer1"
     showguides="true">
    <sodipodi:guide
       position="0.1378982,6.5217155"
       orientation="1,0"
       id="guide31099"
       inkscape:locked="false" />
    <sodipodi:guide
       position="9.3961174,13.638705"
       orientation="0,-1"
       id="guide31101"
       inkscape:locked="false" />
    <sodipodi:guide
       position="14.414185,7.5325447"
       orientation="1,0"
       id="guide31103"
       inkscape:locked="false" />
    <sodipodi:guide
       position="10.475867,0.11963543"
       orientation="0,-1"
       id="guide31105"
       inkscape:locked="false" />
  </sodipodi:namedview>
  <defs
     id="defs9864" />
  <g
     inkscape:label="Capa 1"
     inkscape:groupmode="layer"
     id="layer1">
    <g
       id="g598">
      <rect
         style="fill:#fbffff;fill-opacity:1;stroke:#292929;stroke-width:0.652309;stroke-opacity:1"
         id="rect120393-1-7-3-6-2-4-1"
         width="13.623977"
         height="12.866758"
         x="0.46405342"
         y="0.44578218"
         ry="1.7713984" />
      <g
         id="g191905"
         transform="matrix(0.01934466,0,0,0.01934466,1.9728096,1.5759099)"
         style="fill:#292929;fill-opacity:1">
        <path
           d="m 276.043,244.216 c -24.575,0 -38.741,24.087 -38.741,53.862 -0.241,30.228 14.407,53.382 38.5,53.382 24.323,0 38.512,-22.92 38.512,-54.091 -0.001,-29.066 -13.71,-53.153 -38.271,-53.153 z"
           id="path191901"
           style="fill:#292929;fill-opacity:1" />
        <path
           d="M 486.2,196.116 H 473.036 V 132.59 c 0,-0.399 -0.064,-0.795 -0.116,-1.2 -0.021,-2.52 -0.824,-4.997 -2.551,-6.96 L 364.656,3.677 C 364.625,3.646 364.592,3.633 364.571,3.602 363.942,2.898 363.207,2.312 362.43,1.806 362.199,1.652 361.968,1.523 361.726,1.387 361.054,1.022 360.34,0.715 359.605,0.494 359.406,0.442 359.228,0.36 359.029,0.308 358.229,0.118 357.4,0 356.562,0 H 96.757 C 84.893,0 75.256,9.649 75.256,21.502 V 196.115 H 62.093 c -16.967,0 -30.733,13.756 -30.733,30.733 V 386.66 c 0,16.961 13.766,30.731 30.733,30.731 H 75.256 V 526.79 c 0,11.854 9.637,21.501 21.501,21.501 h 354.777 c 11.853,0 21.502,-9.647 21.502,-21.501 V 417.392 H 486.2 c 16.977,0 30.729,-13.771 30.729,-30.731 V 226.849 C 516.93,209.872 503.177,196.116 486.2,196.116 Z M 96.757,21.502 H 345.81 v 110.006 c 0,5.943 4.818,10.751 10.751,10.751 h 94.973 V 196.12 H 96.757 Z m 256.276,355.458 -10.394,27.884 c -22.666,-6.619 -41.565,-13.479 -62.828,-22.445 -3.527,-1.418 -7.317,-2.132 -11.094,-2.362 -35.909,-2.352 -69.449,-28.819 -69.449,-80.778 0,-47.711 30.236,-83.623 77.71,-83.623 48.675,0 75.351,36.854 75.351,80.317 0,36.142 -16.766,61.638 -37.785,71.091 v 0.945 c 12.284,3.539 25.975,6.378 38.489,8.971 z M 72.912,370.116 80.24,340.352 c 9.69,4.96 24.554,9.915 39.917,9.915 16.525,0 25.271,-6.84 25.271,-17.228 0,-9.928 -7.56,-15.597 -26.691,-22.442 -26.457,-9.217 -43.696,-23.858 -43.696,-47.014 0,-27.163 22.68,-47.948 60.231,-47.948 17.954,0 31.184,3.791 40.623,8.03 l -8.021,29.061 c -6.375,-3.076 -17.711,-7.564 -33.3,-7.564 -15.599,0 -23.163,7.079 -23.163,15.357 0,10.15 8.977,14.646 29.533,22.447 28.108,10.394 41.332,25.023 41.332,47.464 0,26.699 -20.557,49.365 -64.253,49.365 -18.179,-0.01 -36.124,-4.735 -45.111,-9.679 z M 451.534,520.962 H 96.757 V 417.392 H 451.534 Z M 475.387,377.428 H 375.932 V 218.231 h 36.158 v 128.97 h 63.297 z"
           id="path191903"
           style="fill:#292929;fill-opacity:1" />
      </g>
    </g>
  </g>
</svg>
