<?xml version="1.0" encoding="UTF-8" standalone="no"?>
<!-- Created with Inkscape (http://www.inkscape.org/) -->

<svg
   width="55"
   height="52"
   viewBox="0 0 14.552084 13.758334"
   version="1.1"
   id="svg9867"
   inkscape:export-filename="../../../../j-alarcon/img/icons/ubuntu.png"
   inkscape:export-xdpi="96"
   inkscape:export-ydpi="96"
   inkscape:version="1.2.2 (1:1.2.2+202212051550+b0a8486541)"
   sodipodi:docname="ubuntu.svg"
   xmlns:inkscape="http://www.inkscape.org/namespaces/inkscape"
   xmlns:sodipodi="http://sodipodi.sourceforge.net/DTD/sodipodi-0.dtd"
   xmlns="http://www.w3.org/2000/svg"
   xmlns:svg="http://www.w3.org/2000/svg">
  <sodipodi:namedview
     id="namedview9869"
     pagecolor="#ffffff"
     bordercolor="#000000"
     borderopacity="0.25"
     inkscape:showpageshadow="2"
     inkscape:pageopacity="0.0"
     inkscape:pagecheckerboard="0"
     inkscape:deskcolor="#d1d1d1"
     inkscape:document-units="mm"
     showgrid="false"
     inkscape:zoom="5.6568544"
     inkscape:cx="24.660348"
     inkscape:cy="22.273863"
     inkscape:window-width="1920"
     inkscape:window-height="949"
     inkscape:window-x="1920"
     inkscape:window-y="27"
     inkscape:window-maximized="1"
     inkscape:current-layer="layer1"
     showguides="true">
    <sodipodi:guide
       position="0.1378982,6.5217155"
       orientation="1,0"
       id="guide31099"
       inkscape:locked="false" />
    <sodipodi:guide
       position="9.3961174,13.638705"
       orientation="0,-1"
       id="guide31101"
       inkscape:locked="false" />
    <sodipodi:guide
       position="14.414185,7.5325447"
       orientation="1,0"
       id="guide31103"
       inkscape:locked="false" />
    <sodipodi:guide
       position="10.475867,0.11963543"
       orientation="0,-1"
       id="guide31105"
       inkscape:locked="false" />
  </sodipodi:namedview>
  <defs
     id="defs9864" />
  <g
     inkscape:label="Capa 1"
     inkscape:groupmode="layer"
     id="layer1">
    <g
       id="g576">
      <rect
         style="fill:#f47421;fill-opacity:1;stroke:#292929;stroke-width:0.652309;stroke-opacity:1"
         id="rect120393-1-7-3-6-2-2-6-0-9"
         width="13.623977"
         height="12.866759"
         x="0.46405339"
         y="0.44578221"
         ry="1.7713984" />
      <path
         d="m 2.8603051,5.9564595 c -0.5095159,0 -0.9227419,0.4127942 -0.9227419,0.9227419 0,0.5099476 0.4127942,0.9223101 0.9227419,0.9223101 0.5099476,0 0.9227418,-0.413226 0.9227418,-0.9227419 0,-0.5095159 -0.413226,-0.9223101 -0.9227418,-0.9223101 z M 9.446014,10.149171 c -0.4412929,0.259075 -0.5924206,0.818679 -0.3376626,1.25954 0.2547583,0.440861 0.8182479,0.59242 1.2595396,0.337662 0.441293,-0.254757 0.592421,-0.818248 0.337663,-1.25954 C 10.450796,10.04554 9.8868743,9.895276 9.446014,10.149171 Z M 4.8638251,6.8787696 A 2.6900711,2.6900711 0 0 1 6.0093723,4.6744658 L 5.3353432,3.5453267 a 4.0156759,4.0156759 0 0 0 -1.657222,2.3290921 c 0.2918922,0.2374862 0.4775632,0.5984653 0.4775632,1.0043508 0,0.4058855 -0.1865346,0.7668645 -0.4775632,1.0043508 0.2491446,0.9659211 0.8497688,1.7902142 1.657222,2.3295236 L 6.0098041,9.0830735 A 2.6900711,2.6900711 0 0 1 4.8642569,6.8787696 Z m 2.694389,-2.694389 A 2.694389,2.694389 0 0 1 10.241808,6.639988 L 11.556187,6.620557 A 3.9940863,3.9940863 0 0 0 10.365733,4.0215946 C 10.015117,4.154155 9.6100953,4.1338608 9.2603426,3.9317816 A 1.2910614,1.2910614 0 0 1 8.6294928,3.0172438 C 8.2922625,2.9235447 7.9295562,2.8717295 7.5582141,2.8717295 c -0.6377584,0 -1.2405416,0.1498322 -1.775965,0.4145214 l 0.640781,1.1485697 c 0.3454344,-0.160627 0.7297303,-0.25044 1.1347523,-0.25044 z m 0,5.388778 c -0.4058855,0 -0.7901814,-0.090677 -1.1347523,-0.25044 L 5.7826809,10.471288 c 0.5354235,0.265121 1.1382066,0.414522 1.775965,0.414522 A 4.0070401,4.0070401 0 0 0 8.6290611,10.739863 C 8.6895121,10.369385 8.9097266,10.028269 9.259479,9.8253258 9.6092323,9.622383 10.015117,9.6033841 10.364869,9.7359446 a 3.9940863,3.9940863 0 0 0 1.190454,-2.5989627 l -1.31481,-0.019431 A 2.694389,2.694389 0 0 1 7.5582141,9.5731586 Z M 9.446014,3.6088003 C 9.8873063,3.8678762 10.451228,3.7124307 10.705554,3.2720017 10.95988,2.8315727 10.809184,2.2667874 10.368756,2.0120294 9.9283273,1.7572715 9.3635414,1.9083991 9.1087832,2.3501234 8.8540253,2.7918478 9.0051528,3.354906 9.4464457,3.609664 Z"
         fill="#ffffff"
         id="path327"
         style="stroke-width:0.431793" />
    </g>
  </g>
</svg>
