<!-- https://yarduon.com -->
<svg width="55" height="52" version="1.1" viewBox="0 0 14.552 13.758" xmlns="http://www.w3.org/2000/svg">
<rect x=".46405" y=".44578" width="13.624" height="12.867" ry="1.7714" fill="#f47421" stroke="#292929" stroke-width=".65231"/>
<path d="m2.8603 5.9565c-0.50952 0-0.92274 0.41279-0.92274 0.92274 0 0.50995 0.41279 0.92231 0.92274 0.92231 0.50995 0 0.92274-0.41323 0.92274-0.92274s-0.41323-0.92231-0.92274-0.92231zm6.5857 4.1927c-0.44129 0.25908-0.59242 0.81868-0.33766 1.2595 0.25476 0.44086 0.81825 0.59242 1.2595 0.33766 0.44129-0.25476 0.59242-0.81825 0.33766-1.2595-0.25476-0.44129-0.81868-0.59156-1.2595-0.33766zm-4.5822-3.2704a2.6901 2.6901 0 0 1 1.1455-2.2043l-0.67403-1.1291a4.0157 4.0157 0 0 0-1.6572 2.3291c0.29189 0.23749 0.47756 0.59847 0.47756 1.0044s-0.18653 0.76686-0.47756 1.0044c0.24914 0.96592 0.84977 1.7902 1.6572 2.3295l0.67446-1.1296a2.6901 2.6901 0 0 1-1.1455-2.2043zm2.6944-2.6944a2.6944 2.6944 0 0 1 2.6836 2.4556l1.3144-0.019431a3.9941 3.9941 0 0 0-1.1905-2.599c-0.35062 0.13256-0.75564 0.11227-1.1054-0.089813a1.2911 1.2911 0 0 1-0.63085-0.91454c-0.33723-0.093699-0.69994-0.14551-1.0713-0.14551-0.63776 0-1.2405 0.14983-1.776 0.41452l0.64078 1.1486c0.34543-0.16063 0.72973-0.25044 1.1348-0.25044zm0 5.3888c-0.40589 0-0.79018-0.090677-1.1348-0.25044l-0.64078 1.1486c0.53542 0.26512 1.1382 0.41452 1.776 0.41452a4.007 4.007 0 0 0 1.0704-0.14595c0.060451-0.37048 0.28067-0.71159 0.63042-0.91454 0.34975-0.20294 0.75564-0.22194 1.1054-0.089381a3.9941 3.9941 0 0 0 1.1905-2.599l-1.3148-0.019431a2.6944 2.6944 0 0 1-2.6823 2.4556zm1.8878-5.9644c0.44129 0.25908 1.0052 0.10363 1.2595-0.3368s0.10363-1.0052-0.3368-1.26c-0.44043-0.25476-1.0052-0.10363-1.26 0.33809-0.25476 0.44172-0.10363 1.0048 0.33766 1.2595z" fill="#fff" stroke-width=".43179"/>
</svg>