<!-- https://yarduon.com -->
<svg width="55" height="52" version="1.1" viewBox="0 0 14.552 13.758" xmlns="http://www.w3.org/2000/svg">
<g>
<rect x=".46405" y=".44578" width="13.624" height="12.867" ry="1.7714" fill="#3c99d4" stroke="#292929" stroke-width=".65231"/>
<g transform="matrix(.94702 0 0 .94702 .38549 .36441)">
<path d="m2.3906 5.3884s-0.2426-0.17488 0.048514-0.40838l0.67826-0.60648s0.19408-0.20419 0.39927-0.026296l6.7663 4.9669-0.50726 2.0442s-0.00319 0.35681-0.46093 0.31739z" fill="#fff"/>
<path d="m4.0562 6.7743-1.6633 1.5117s-0.17092 0.1271 0 0.35422l0.77225 0.7022s0.18342 0.1969 0.45439-0.027092l1.7634-1.3367z" fill="#fff"/>
<path d="m6.7579 6.9873 3.037-2.3163 0.45244-2.4671s-0.60186-0.35595-1.0345-0.092698l-4.0414 3.6739z" fill="#fffff7"/>
<path d="m9.3147 11.679c0.17184 0.17589 0.38007 0.1182 0.38007 0.1182l2.3057-1.1362c0.29516-0.20115 0.25372-0.45082 0.25372-0.45082v-6.7846c0-0.29819-0.30527-0.4013-0.30527-0.4013l-1.9984-0.96331c-0.43668-0.26989-0.72274 0.048474-0.72274 0.048474s0.36794-0.26483 0.54787 0.23654v8.971c0 0.06162-0.013148 0.12231-0.03943 0.1769-0.052565 0.10611-0.16678 0.2052-0.44072 0.16376z" fill="#fffff4"/>
</g>
</g>
</svg>