<?xml version="1.0" encoding="UTF-8" standalone="no"?>
<!-- Created with Inkscape (http://www.inkscape.org/) -->

<svg
   width="55"
   height="52"
   viewBox="0 0 14.552084 13.758334"
   version="1.1"
   id="svg9867"
   inkscape:export-filename="../../../../j-alarcon/img/icons/vs.png"
   inkscape:export-xdpi="96"
   inkscape:export-ydpi="96"
   inkscape:version="1.2.2 (1:1.2.2+202212051550+b0a8486541)"
   sodipodi:docname="vs.svg"
   xmlns:inkscape="http://www.inkscape.org/namespaces/inkscape"
   xmlns:sodipodi="http://sodipodi.sourceforge.net/DTD/sodipodi-0.dtd"
   xmlns="http://www.w3.org/2000/svg"
   xmlns:svg="http://www.w3.org/2000/svg">
  <sodipodi:namedview
     id="namedview9869"
     pagecolor="#ffffff"
     bordercolor="#000000"
     borderopacity="0.25"
     inkscape:showpageshadow="2"
     inkscape:pageopacity="0.0"
     inkscape:pagecheckerboard="0"
     inkscape:deskcolor="#d1d1d1"
     inkscape:document-units="mm"
     showgrid="false"
     inkscape:zoom="11.516947"
     inkscape:cx="26.873441"
     inkscape:cy="24.051513"
     inkscape:window-width="1920"
     inkscape:window-height="949"
     inkscape:window-x="1920"
     inkscape:window-y="27"
     inkscape:window-maximized="1"
     inkscape:current-layer="layer1"
     showguides="true">
    <sodipodi:guide
       position="0.1378982,6.5217155"
       orientation="1,0"
       id="guide31099"
       inkscape:locked="false" />
    <sodipodi:guide
       position="9.3961174,13.638705"
       orientation="0,-1"
       id="guide31101"
       inkscape:locked="false" />
    <sodipodi:guide
       position="14.414185,7.5325447"
       orientation="1,0"
       id="guide31103"
       inkscape:locked="false" />
    <sodipodi:guide
       position="10.475867,0.11963543"
       orientation="0,-1"
       id="guide31105"
       inkscape:locked="false" />
  </sodipodi:namedview>
  <defs
     id="defs9864" />
  <g
     inkscape:label="Capa 1"
     inkscape:groupmode="layer"
     id="layer1">
    <g
       id="g1487">
      <rect
         style="fill:#3c99d4;fill-opacity:1;stroke:#292929;stroke-width:0.652309;stroke-opacity:1"
         id="rect120393-1-7-3-6-2-4-1-7"
         width="13.623977"
         height="12.866758"
         x="0.4640539"
         y="0.44578221"
         ry="1.7713984" />
      <g
         id="g1841"
         transform="matrix(0.94701967,0,0,0.94701967,0.38549095,0.36440916)">
        <path
           d="m 2.3906387,5.3884386 c 0,0 -0.2425991,-0.1748788 0.048514,-0.408378 L 3.1174135,4.3735761 c 0,0 0.1940758,-0.204189 0.3992728,-0.026296 L 10.282946,9.3141533 9.7756871,11.358341 c 0,0 -0.00319,0.356809 -0.4609347,0.317393 z"
           fill="#2489ca"
           id="path192931"
           style="fill:#ffffff;fill-opacity:1;stroke:none;stroke-width:0.0101082"
           sodipodi:nodetypes="cccccccc" />
        <path
           d="M 4.0562407,6.774281 2.3929243,8.2859969 c 0,0 -0.1709172,0.1270952 0,0.3542197 l 0.7722528,0.7021977 c 0,0 0.1834235,0.196898 0.4543913,-0.027092 l 1.763367,-1.3366645 z"
           fill="#1070b3"
           id="path192933"
           style="fill:#ffffff;fill-opacity:1;stroke:none;stroke-width:0.0104201" />
        <path
           d="M 6.757897,6.9873149 9.7948988,4.6710479 10.247338,2.2039134 c 0,0 -0.6018591,-0.3559462 -1.0345326,-0.092698 L 5.1714287,5.7851563 Z"
           fill="#0877b9"
           id="path192935"
           style="fill:#fffff7;fill-opacity:1;stroke:none;stroke-width:0.0103698"
           sodipodi:nodetypes="cccccc" />
        <path
           d="m 9.3147471,11.678881 c 0.1718402,0.175888 0.3800718,0.118197 0.3800718,0.118197 l 2.3056781,-1.136167 c 0.29516,-0.201148 0.253715,-0.450823 0.253715,-0.450823 V 3.4254617 c 0,-0.298189 -0.305267,-0.4012994 -0.305267,-0.4012994 L 9.9505552,2.060855 C 9.5138802,1.7909669 9.2278151,2.109329 9.2278151,2.109329 c 0,0 0.3679413,-0.2648282 0.5478666,0.2365405 v 8.9710225 c 0,0.06162 -0.013148,0.122314 -0.03943,0.176898 -0.052565,0.106111 -0.1667829,0.205198 -0.4407176,0.163763 z"
           fill="#3c99d4"
           id="path192937"
           style="fill:#fffff4;fill-opacity:1;stroke:none;stroke-width:0.0101082" />
      </g>
    </g>
  </g>
</svg>
