<?xml version="1.0" encoding="UTF-8" standalone="no"?>
<!-- Created with Inkscape (http://www.inkscape.org/) -->

<svg
   width="55"
   height="52"
   viewBox="0 0 14.552084 13.758334"
   version="1.1"
   id="svg9867"
   inkscape:export-filename="../../../../j-alarcon/img/icons/vs.png"
   inkscape:export-xdpi="96"
   inkscape:export-ydpi="96"
   inkscape:version="1.2 (1:1.2+202206011327+fc4e4096c5)"
   sodipodi:docname="vs.svg"
   xmlns:inkscape="http://www.inkscape.org/namespaces/inkscape"
   xmlns:sodipodi="http://sodipodi.sourceforge.net/DTD/sodipodi-0.dtd"
   xmlns="http://www.w3.org/2000/svg"
   xmlns:svg="http://www.w3.org/2000/svg">
  <sodipodi:namedview
     id="namedview9869"
     pagecolor="#ffffff"
     bordercolor="#000000"
     borderopacity="0.25"
     inkscape:showpageshadow="2"
     inkscape:pageopacity="0.0"
     inkscape:pagecheckerboard="0"
     inkscape:deskcolor="#d1d1d1"
     inkscape:document-units="mm"
     showgrid="false"
     inkscape:zoom="11.516947"
     inkscape:cx="20.534956"
     inkscape:cy="24.051512"
     inkscape:window-width="1920"
     inkscape:window-height="949"
     inkscape:window-x="1920"
     inkscape:window-y="27"
     inkscape:window-maximized="1"
     inkscape:current-layer="layer1"
     showguides="true">
    <sodipodi:guide
       position="0.1378982,6.5217155"
       orientation="1,0"
       id="guide31099"
       inkscape:locked="false" />
    <sodipodi:guide
       position="9.3961174,13.638705"
       orientation="0,-1"
       id="guide31101"
       inkscape:locked="false" />
    <sodipodi:guide
       position="14.414185,7.5325447"
       orientation="1,0"
       id="guide31103"
       inkscape:locked="false" />
    <sodipodi:guide
       position="10.475867,0.11963543"
       orientation="0,-1"
       id="guide31105"
       inkscape:locked="false" />
  </sodipodi:namedview>
  <defs
     id="defs9864" />
  <g
     inkscape:label="Capa 1"
     inkscape:groupmode="layer"
     id="layer1">
    <g
       id="g219088"
       transform="matrix(1.3280586,0,0,1.3280586,27.947902,-171.62233)">
      <rect
         style="fill:#3c99d4;fill-opacity:1;stroke:#292929;stroke-width:0.491175;stroke-opacity:1"
         id="rect120393-1-7-3-6-2-4-1-7"
         width="10.258566"
         height="9.6883965"
         x="-20.694756"
         y="129.56364"
         ry="1.3338255" />
      <path
         d="m -19.244078,133.28536 c 0,0 -0.182672,-0.13168 0.03653,-0.3075 l 0.510716,-0.45667 c 0,0 0.146135,-0.15375 0.300644,-0.0198 l 5.09485,3.73995 -0.381955,1.53923 c 0,0 -0.0024,0.26867 -0.347074,0.23899 z"
         fill="#2489ca"
         id="path192931"
         style="fill:#ffffff;fill-opacity:1;stroke:none;stroke-width:0.00761128"
         sodipodi:nodetypes="cccccccc" />
      <path
         d="m -17.989915,134.32887 -1.252442,1.13829 c 0,0 -0.128697,0.0957 0,0.26672 l 0.58149,0.52874 c 0,0 0.138114,0.14826 0.342147,-0.0204 l 1.327778,-1.00648 z"
         fill="#1070b3"
         id="path192933"
         style="fill:#ffffff;fill-opacity:1;stroke:none;stroke-width:0.0078461" />
      <path
         d="m -15.955625,134.48928 2.286798,-1.7441 0.340677,-1.8577 c 0,0 -0.453187,-0.26802 -0.778981,-0.0698 l -3.043071,2.7664 z"
         fill="#0877b9"
         id="path192935"
         style="fill:#fffff7;fill-opacity:1;stroke:none;stroke-width:0.00780822"
         sodipodi:nodetypes="cccccc" />
      <path
         d="m -14.030371,138.02193 c 0.129392,0.13244 0.286186,0.089 0.286186,0.089 l 1.736127,-0.85551 c 0.222249,-0.15146 0.191042,-0.33946 0.191042,-0.33946 v -5.10868 c 0,-0.22453 -0.22986,-0.30217 -0.22986,-0.30217 l -1.504745,-0.72535 c -0.328807,-0.20322 -0.544208,0.0365 -0.544208,0.0365 0,0 0.277052,-0.19941 0.412532,0.17811 v 6.75499 c 0,0.0464 -0.0099,0.0921 -0.02969,0.1332 -0.03958,0.0799 -0.125584,0.15451 -0.331851,0.12331 z"
         fill="#3c99d4"
         id="path192937"
         style="fill:#fffff4;fill-opacity:1;stroke:none;stroke-width:0.00761128" />
    </g>
  </g>
</svg>
